ISO-10303-21;
HEADER;
/* Generated by software containing ST-Developer
 * from STEP Tools, Inc. (www.steptools.com) 
 */
/* OPTION: using custom renumber hook */

FILE_DESCRIPTION(
/* description */ ('STEP AP242 Edition 2',
'CAx-IF Rec.Pracs.---Representation and Presentation of Product Manufa
cturing Information (PMI)---4.0---2014-10-13',
'CAx-IF Rec.Pracs.---3D Tessellated Geometry---0.4---2014-09-14','2;1',
'CAx-IF Rec.Pracs.---User Defined Attributes---1.5---2016-08-15'),
/* implementation_level */ '2;1');

FILE_NAME(
/* name */ 'Part Studio 1',
/* time_stamp */ '2026-09-12T00:35:50Z',
/* author */ (''),
/* organization */ (''),
/* preprocessor_version */ 'ST-DEVELOPER v20',
/* originating_system */ 'ONSHAPE BY PTC INC, 1.220',
/* authorisation */ '  ');

FILE_SCHEMA (('AP242_MANAGED_MODEL_BASED_3D_ENGINEERING_MIM_LF { 1 0 10303 442 3 1 4 }'));
ENDSEC;

DATA;
#10=SHAPE_REPRESENTATION_RELATIONSHIP('','',#457,#11);
#11=ADVANCED_BREP_SHAPE_REPRESENTATION('',(#455),#723);
#12=CIRCLE('',#465,0.00145);
#13=CIRCLE('',#466,0.00145);
#14=CIRCLE('',#468,0.00145);
#15=CIRCLE('',#469,0.00145);
#16=CIRCLE('',#471,0.00145);
#17=CIRCLE('',#472,0.00145);
#18=CIRCLE('',#474,0.00145);
#19=CIRCLE('',#475,0.00145);
#20=CYLINDRICAL_SURFACE('',#464,0.00145);
#21=CYLINDRICAL_SURFACE('',#467,0.00145);
#22=CYLINDRICAL_SURFACE('',#470,0.00145);
#23=CYLINDRICAL_SURFACE('',#473,0.00145);
#24=ORIENTED_EDGE('',*,*,#136,.T.);
#25=ORIENTED_EDGE('',*,*,#137,.T.);
#26=ORIENTED_EDGE('',*,*,#138,.F.);
#27=ORIENTED_EDGE('',*,*,#139,.T.);
#28=ORIENTED_EDGE('',*,*,#140,.F.);
#29=ORIENTED_EDGE('',*,*,#141,.T.);
#30=ORIENTED_EDGE('',*,*,#142,.T.);
#31=ORIENTED_EDGE('',*,*,#143,.F.);
#32=ORIENTED_EDGE('',*,*,#144,.F.);
#33=ORIENTED_EDGE('',*,*,#145,.F.);
#34=ORIENTED_EDGE('',*,*,#146,.F.);
#35=ORIENTED_EDGE('',*,*,#147,.T.);
#36=ORIENTED_EDGE('',*,*,#148,.F.);
#37=ORIENTED_EDGE('',*,*,#149,.T.);
#38=ORIENTED_EDGE('',*,*,#150,.T.);
#39=ORIENTED_EDGE('',*,*,#151,.F.);
#40=ORIENTED_EDGE('',*,*,#152,.T.);
#41=ORIENTED_EDGE('',*,*,#153,.T.);
#42=ORIENTED_EDGE('',*,*,#154,.F.);
#43=ORIENTED_EDGE('',*,*,#155,.T.);
#44=ORIENTED_EDGE('',*,*,#156,.T.);
#45=ORIENTED_EDGE('',*,*,#157,.T.);
#46=ORIENTED_EDGE('',*,*,#158,.F.);
#47=ORIENTED_EDGE('',*,*,#159,.T.);
#48=ORIENTED_EDGE('',*,*,#160,.T.);
#49=ORIENTED_EDGE('',*,*,#161,.T.);
#50=ORIENTED_EDGE('',*,*,#162,.F.);
#51=ORIENTED_EDGE('',*,*,#163,.T.);
#52=ORIENTED_EDGE('',*,*,#164,.F.);
#53=ORIENTED_EDGE('',*,*,#165,.T.);
#54=ORIENTED_EDGE('',*,*,#166,.T.);
#55=ORIENTED_EDGE('',*,*,#167,.F.);
#56=ORIENTED_EDGE('',*,*,#168,.F.);
#57=ORIENTED_EDGE('',*,*,#169,.T.);
#58=ORIENTED_EDGE('',*,*,#170,.T.);
#59=ORIENTED_EDGE('',*,*,#171,.F.);
#60=ORIENTED_EDGE('',*,*,#170,.F.);
#61=ORIENTED_EDGE('',*,*,#164,.T.);
#62=ORIENTED_EDGE('',*,*,#166,.F.);
#63=ORIENTED_EDGE('',*,*,#168,.T.);
#64=ORIENTED_EDGE('',*,*,#138,.T.);
#65=ORIENTED_EDGE('',*,*,#172,.T.);
#66=ORIENTED_EDGE('',*,*,#160,.F.);
#67=ORIENTED_EDGE('',*,*,#173,.T.);
#68=ORIENTED_EDGE('',*,*,#156,.F.);
#69=ORIENTED_EDGE('',*,*,#174,.T.);
#70=ORIENTED_EDGE('',*,*,#154,.T.);
#71=ORIENTED_EDGE('',*,*,#175,.T.);
#72=ORIENTED_EDGE('',*,*,#176,.T.);
#73=ORIENTED_EDGE('',*,*,#177,.T.);
#74=ORIENTED_EDGE('',*,*,#178,.F.);
#75=ORIENTED_EDGE('',*,*,#179,.T.);
#76=ORIENTED_EDGE('',*,*,#180,.F.);
#77=ORIENTED_EDGE('',*,*,#147,.F.);
#78=ORIENTED_EDGE('',*,*,#181,.F.);
#79=ORIENTED_EDGE('',*,*,#178,.T.);
#80=ORIENTED_EDGE('',*,*,#145,.T.);
#81=ORIENTED_EDGE('',*,*,#182,.T.);
#82=ORIENTED_EDGE('',*,*,#176,.F.);
#83=ORIENTED_EDGE('',*,*,#183,.T.);
#84=ORIENTED_EDGE('',*,*,#162,.T.);
#85=ORIENTED_EDGE('',*,*,#184,.T.);
#86=ORIENTED_EDGE('',*,*,#136,.F.);
#87=ORIENTED_EDGE('',*,*,#185,.T.);
#88=ORIENTED_EDGE('',*,*,#152,.F.);
#89=ORIENTED_EDGE('',*,*,#186,.T.);
#90=ORIENTED_EDGE('',*,*,#158,.T.);
#91=ORIENTED_EDGE('',*,*,#187,.T.);
#92=ORIENTED_EDGE('',*,*,#169,.F.);
#93=ORIENTED_EDGE('',*,*,#167,.T.);
#94=ORIENTED_EDGE('',*,*,#165,.F.);
#95=ORIENTED_EDGE('',*,*,#171,.T.);
#96=ORIENTED_EDGE('',*,*,#179,.F.);
#97=ORIENTED_EDGE('',*,*,#181,.T.);
#98=ORIENTED_EDGE('',*,*,#146,.T.);
#99=ORIENTED_EDGE('',*,*,#183,.F.);
#100=ORIENTED_EDGE('',*,*,#177,.F.);
#101=ORIENTED_EDGE('',*,*,#182,.F.);
#102=ORIENTED_EDGE('',*,*,#144,.T.);
#103=ORIENTED_EDGE('',*,*,#180,.T.);
#104=ORIENTED_EDGE('',*,*,#148,.T.);
#105=ORIENTED_EDGE('',*,*,#188,.T.);
#106=ORIENTED_EDGE('',*,*,#141,.F.);
#107=ORIENTED_EDGE('',*,*,#189,.F.);
#108=ORIENTED_EDGE('',*,*,#189,.T.);
#109=ORIENTED_EDGE('',*,*,#140,.T.);
#110=ORIENTED_EDGE('',*,*,#190,.F.);
#111=ORIENTED_EDGE('',*,*,#149,.F.);
#112=ORIENTED_EDGE('',*,*,#190,.T.);
#113=ORIENTED_EDGE('',*,*,#143,.T.);
#114=ORIENTED_EDGE('',*,*,#191,.F.);
#115=ORIENTED_EDGE('',*,*,#150,.F.);
#116=ORIENTED_EDGE('',*,*,#151,.T.);
#117=ORIENTED_EDGE('',*,*,#191,.T.);
#118=ORIENTED_EDGE('',*,*,#142,.F.);
#119=ORIENTED_EDGE('',*,*,#188,.F.);
#120=ORIENTED_EDGE('',*,*,#184,.F.);
#121=ORIENTED_EDGE('',*,*,#161,.F.);
#122=ORIENTED_EDGE('',*,*,#172,.F.);
#123=ORIENTED_EDGE('',*,*,#137,.F.);
#124=ORIENTED_EDGE('',*,*,#185,.F.);
#125=ORIENTED_EDGE('',*,*,#139,.F.);
#126=ORIENTED_EDGE('',*,*,#175,.F.);
#127=ORIENTED_EDGE('',*,*,#153,.F.);
#128=ORIENTED_EDGE('',*,*,#187,.F.);
#129=ORIENTED_EDGE('',*,*,#157,.F.);
#130=ORIENTED_EDGE('',*,*,#173,.F.);
#131=ORIENTED_EDGE('',*,*,#163,.F.);
#132=ORIENTED_EDGE('',*,*,#186,.F.);
#133=ORIENTED_EDGE('',*,*,#155,.F.);
#134=ORIENTED_EDGE('',*,*,#174,.F.);
#135=ORIENTED_EDGE('',*,*,#159,.F.);
#136=EDGE_CURVE('',#192,#193,#232,.T.);
#137=EDGE_CURVE('',#193,#194,#233,.T.);
#138=EDGE_CURVE('',#195,#194,#234,.T.);
#139=EDGE_CURVE('',#195,#192,#235,.T.);
#140=EDGE_CURVE('',#196,#197,#236,.T.);
#141=EDGE_CURVE('',#196,#198,#237,.T.);
#142=EDGE_CURVE('',#198,#199,#238,.T.);
#143=EDGE_CURVE('',#197,#199,#239,.T.);
#144=EDGE_CURVE('',#200,#201,#240,.T.);
#145=EDGE_CURVE('',#202,#200,#241,.T.);
#146=EDGE_CURVE('',#203,#202,#242,.T.);
#147=EDGE_CURVE('',#203,#201,#243,.T.);
#148=EDGE_CURVE('',#204,#205,#244,.T.);
#149=EDGE_CURVE('',#204,#206,#245,.T.);
#150=EDGE_CURVE('',#206,#207,#246,.T.);
#151=EDGE_CURVE('',#205,#207,#247,.T.);
#152=EDGE_CURVE('',#208,#209,#248,.T.);
#153=EDGE_CURVE('',#209,#210,#249,.T.);
#154=EDGE_CURVE('',#211,#210,#250,.T.);
#155=EDGE_CURVE('',#211,#208,#251,.T.);
#156=EDGE_CURVE('',#212,#213,#252,.T.);
#157=EDGE_CURVE('',#213,#214,#253,.T.);
#158=EDGE_CURVE('',#215,#214,#254,.T.);
#159=EDGE_CURVE('',#215,#212,#255,.T.);
#160=EDGE_CURVE('',#216,#217,#256,.T.);
#161=EDGE_CURVE('',#217,#218,#257,.T.);
#162=EDGE_CURVE('',#219,#218,#258,.T.);
#163=EDGE_CURVE('',#219,#216,#259,.T.);
#164=EDGE_CURVE('',#220,#220,#12,.T.);
#165=EDGE_CURVE('',#221,#221,#13,.T.);
#166=EDGE_CURVE('',#222,#222,#14,.T.);
#167=EDGE_CURVE('',#223,#223,#15,.T.);
#168=EDGE_CURVE('',#224,#224,#16,.T.);
#169=EDGE_CURVE('',#225,#225,#17,.T.);
#170=EDGE_CURVE('',#226,#226,#18,.T.);
#171=EDGE_CURVE('',#227,#227,#19,.T.);
#172=EDGE_CURVE('',#194,#217,#260,.T.);
#173=EDGE_CURVE('',#216,#213,#261,.F.);
#174=EDGE_CURVE('',#212,#211,#262,.T.);
#175=EDGE_CURVE('',#210,#195,#263,.F.);
#176=EDGE_CURVE('',#228,#229,#264,.T.);
#177=EDGE_CURVE('',#229,#230,#265,.T.);
#178=EDGE_CURVE('',#231,#230,#266,.T.);
#179=EDGE_CURVE('',#231,#228,#267,.T.);
#180=EDGE_CURVE('',#201,#230,#268,.T.);
#181=EDGE_CURVE('',#231,#203,#269,.T.);
#182=EDGE_CURVE('',#200,#229,#270,.T.);
#183=EDGE_CURVE('',#228,#202,#271,.T.);
#184=EDGE_CURVE('',#218,#193,#272,.T.);
#185=EDGE_CURVE('',#192,#209,#273,.F.);
#186=EDGE_CURVE('',#208,#215,#274,.T.);
#187=EDGE_CURVE('',#214,#219,#275,.F.);
#188=EDGE_CURVE('',#205,#198,#276,.T.);
#189=EDGE_CURVE('',#204,#196,#277,.T.);
#190=EDGE_CURVE('',#206,#197,#278,.T.);
#191=EDGE_CURVE('',#207,#199,#279,.T.);
#192=VERTEX_POINT('',#605);
#193=VERTEX_POINT('',#606);
#194=VERTEX_POINT('',#608);
#195=VERTEX_POINT('',#610);
#196=VERTEX_POINT('',#613);
#197=VERTEX_POINT('',#614);
#198=VERTEX_POINT('',#616);
#199=VERTEX_POINT('',#618);
#200=VERTEX_POINT('',#622);
#201=VERTEX_POINT('',#623);
#202=VERTEX_POINT('',#625);
#203=VERTEX_POINT('',#627);
#204=VERTEX_POINT('',#630);
#205=VERTEX_POINT('',#631);
#206=VERTEX_POINT('',#633);
#207=VERTEX_POINT('',#635);
#208=VERTEX_POINT('',#639);
#209=VERTEX_POINT('',#640);
#210=VERTEX_POINT('',#642);
#211=VERTEX_POINT('',#644);
#212=VERTEX_POINT('',#648);
#213=VERTEX_POINT('',#649);
#214=VERTEX_POINT('',#651);
#215=VERTEX_POINT('',#653);
#216=VERTEX_POINT('',#657);
#217=VERTEX_POINT('',#658);
#218=VERTEX_POINT('',#660);
#219=VERTEX_POINT('',#662);
#220=VERTEX_POINT('',#666);
#221=VERTEX_POINT('',#668);
#222=VERTEX_POINT('',#671);
#223=VERTEX_POINT('',#673);
#224=VERTEX_POINT('',#676);
#225=VERTEX_POINT('',#678);
#226=VERTEX_POINT('',#681);
#227=VERTEX_POINT('',#683);
#228=VERTEX_POINT('',#691);
#229=VERTEX_POINT('',#692);
#230=VERTEX_POINT('',#694);
#231=VERTEX_POINT('',#696);
#232=LINE('',#604,#280);
#233=LINE('',#607,#281);
#234=LINE('',#609,#282);
#235=LINE('',#611,#283);
#236=LINE('',#612,#284);
#237=LINE('',#615,#285);
#238=LINE('',#617,#286);
#239=LINE('',#619,#287);
#240=LINE('',#621,#288);
#241=LINE('',#624,#289);
#242=LINE('',#626,#290);
#243=LINE('',#628,#291);
#244=LINE('',#629,#292);
#245=LINE('',#632,#293);
#246=LINE('',#634,#294);
#247=LINE('',#636,#295);
#248=LINE('',#638,#296);
#249=LINE('',#641,#297);
#250=LINE('',#643,#298);
#251=LINE('',#645,#299);
#252=LINE('',#647,#300);
#253=LINE('',#650,#301);
#254=LINE('',#652,#302);
#255=LINE('',#654,#303);
#256=LINE('',#656,#304);
#257=LINE('',#659,#305);
#258=LINE('',#661,#306);
#259=LINE('',#663,#307);
#260=LINE('',#685,#308);
#261=LINE('',#686,#309);
#262=LINE('',#687,#310);
#263=LINE('',#688,#311);
#264=LINE('',#690,#312);
#265=LINE('',#693,#313);
#266=LINE('',#695,#314);
#267=LINE('',#697,#315);
#268=LINE('',#699,#316);
#269=LINE('',#700,#317);
#270=LINE('',#702,#318);
#271=LINE('',#703,#319);
#272=LINE('',#705,#320);
#273=LINE('',#706,#321);
#274=LINE('',#707,#322);
#275=LINE('',#708,#323);
#276=LINE('',#711,#324);
#277=LINE('',#712,#325);
#278=LINE('',#714,#326);
#279=LINE('',#716,#327);
#280=VECTOR('',#494,1.);
#281=VECTOR('',#495,1.);
#282=VECTOR('',#496,1.);
#283=VECTOR('',#497,1.);
#284=VECTOR('',#498,1.);
#285=VECTOR('',#499,1.);
#286=VECTOR('',#500,1.);
#287=VECTOR('',#501,1.);
#288=VECTOR('',#504,1.);
#289=VECTOR('',#505,1.);
#290=VECTOR('',#506,1.);
#291=VECTOR('',#507,1.);
#292=VECTOR('',#508,1.);
#293=VECTOR('',#509,1.);
#294=VECTOR('',#510,1.);
#295=VECTOR('',#511,1.);
#296=VECTOR('',#514,1.);
#297=VECTOR('',#515,1.);
#298=VECTOR('',#516,1.);
#299=VECTOR('',#517,1.);
#300=VECTOR('',#520,1.);
#301=VECTOR('',#521,1.);
#302=VECTOR('',#522,1.);
#303=VECTOR('',#523,1.);
#304=VECTOR('',#526,1.);
#305=VECTOR('',#527,1.);
#306=VECTOR('',#528,1.);
#307=VECTOR('',#529,1.);
#308=VECTOR('',#556,1.);
#309=VECTOR('',#557,1.);
#310=VECTOR('',#558,1.);
#311=VECTOR('',#559,1.);
#312=VECTOR('',#562,1.);
#313=VECTOR('',#563,1.);
#314=VECTOR('',#564,1.);
#315=VECTOR('',#565,1.);
#316=VECTOR('',#568,1.);
#317=VECTOR('',#569,1.);
#318=VECTOR('',#572,1.);
#319=VECTOR('',#573,1.);
#320=VECTOR('',#576,1.);
#321=VECTOR('',#577,1.);
#322=VECTOR('',#578,1.);
#323=VECTOR('',#579,1.);
#324=VECTOR('',#584,1.);
#325=VECTOR('',#585,1.);
#326=VECTOR('',#588,1.);
#327=VECTOR('',#591,1.);
#328=EDGE_LOOP('',(#24,#25,#26,#27));
#329=EDGE_LOOP('',(#28,#29,#30,#31));
#330=EDGE_LOOP('',(#32,#33,#34,#35));
#331=EDGE_LOOP('',(#36,#37,#38,#39));
#332=EDGE_LOOP('',(#40,#41,#42,#43));
#333=EDGE_LOOP('',(#44,#45,#46,#47));
#334=EDGE_LOOP('',(#48,#49,#50,#51));
#335=EDGE_LOOP('',(#52));
#336=EDGE_LOOP('',(#53));
#337=EDGE_LOOP('',(#54));
#338=EDGE_LOOP('',(#55));
#339=EDGE_LOOP('',(#56));
#340=EDGE_LOOP('',(#57));
#341=EDGE_LOOP('',(#58));
#342=EDGE_LOOP('',(#59));
#343=EDGE_LOOP('',(#60));
#344=EDGE_LOOP('',(#61));
#345=EDGE_LOOP('',(#62));
#346=EDGE_LOOP('',(#63));
#347=EDGE_LOOP('',(#64,#65,#66,#67,#68,#69,#70,#71));
#348=EDGE_LOOP('',(#72,#73,#74,#75));
#349=EDGE_LOOP('',(#76,#77,#78,#79));
#350=EDGE_LOOP('',(#80,#81,#82,#83));
#351=EDGE_LOOP('',(#84,#85,#86,#87,#88,#89,#90,#91));
#352=EDGE_LOOP('',(#92));
#353=EDGE_LOOP('',(#93));
#354=EDGE_LOOP('',(#94));
#355=EDGE_LOOP('',(#95));
#356=EDGE_LOOP('',(#96,#97,#98,#99));
#357=EDGE_LOOP('',(#100,#101,#102,#103));
#358=EDGE_LOOP('',(#104,#105,#106,#107));
#359=EDGE_LOOP('',(#108,#109,#110,#111));
#360=EDGE_LOOP('',(#112,#113,#114,#115));
#361=EDGE_LOOP('',(#116,#117,#118,#119));
#362=EDGE_LOOP('',(#120,#121,#122,#123));
#363=EDGE_LOOP('',(#124,#125,#126,#127));
#364=EDGE_LOOP('',(#128,#129,#130,#131));
#365=EDGE_LOOP('',(#132,#133,#134,#135));
#366=FACE_BOUND('',#328,.T.);
#367=FACE_BOUND('',#329,.T.);
#368=FACE_BOUND('',#330,.T.);
#369=FACE_BOUND('',#331,.T.);
#370=FACE_BOUND('',#332,.T.);
#371=FACE_BOUND('',#333,.T.);
#372=FACE_BOUND('',#334,.T.);
#373=FACE_BOUND('',#335,.T.);
#374=FACE_BOUND('',#336,.T.);
#375=FACE_BOUND('',#337,.T.);
#376=FACE_BOUND('',#338,.T.);
#377=FACE_BOUND('',#339,.T.);
#378=FACE_BOUND('',#340,.T.);
#379=FACE_BOUND('',#341,.T.);
#380=FACE_BOUND('',#342,.T.);
#381=FACE_BOUND('',#343,.T.);
#382=FACE_BOUND('',#344,.T.);
#383=FACE_BOUND('',#345,.T.);
#384=FACE_BOUND('',#346,.T.);
#385=FACE_BOUND('',#347,.T.);
#386=FACE_BOUND('',#348,.T.);
#387=FACE_BOUND('',#349,.T.);
#388=FACE_BOUND('',#350,.T.);
#389=FACE_BOUND('',#351,.T.);
#390=FACE_BOUND('',#352,.T.);
#391=FACE_BOUND('',#353,.T.);
#392=FACE_BOUND('',#354,.T.);
#393=FACE_BOUND('',#355,.T.);
#394=FACE_BOUND('',#356,.T.);
#395=FACE_BOUND('',#357,.T.);
#396=FACE_BOUND('',#358,.T.);
#397=FACE_BOUND('',#359,.T.);
#398=FACE_BOUND('',#360,.T.);
#399=FACE_BOUND('',#361,.T.);
#400=FACE_BOUND('',#362,.T.);
#401=FACE_BOUND('',#363,.T.);
#402=FACE_BOUND('',#364,.T.);
#403=FACE_BOUND('',#365,.T.);
#404=PLANE('',#459);
#405=PLANE('',#460);
#406=PLANE('',#461);
#407=PLANE('',#462);
#408=PLANE('',#463);
#409=PLANE('',#476);
#410=PLANE('',#477);
#411=PLANE('',#478);
#412=PLANE('',#479);
#413=PLANE('',#480);
#414=PLANE('',#481);
#415=PLANE('',#482);
#416=PLANE('',#483);
#417=PLANE('',#484);
#418=PLANE('',#485);
#419=PLANE('',#486);
#420=PLANE('',#487);
#421=PLANE('',#488);
#422=PLANE('',#489);
#423=ADVANCED_FACE('',(#366,#367),#404,.T.);
#424=ADVANCED_FACE('',(#368,#369),#405,.F.);
#425=ADVANCED_FACE('',(#370),#406,.T.);
#426=ADVANCED_FACE('',(#371),#407,.F.);
#427=ADVANCED_FACE('',(#372),#408,.F.);
#428=ADVANCED_FACE('',(#373,#374),#20,.F.);
#429=ADVANCED_FACE('',(#375,#376),#21,.F.);
#430=ADVANCED_FACE('',(#377,#378),#22,.F.);
#431=ADVANCED_FACE('',(#379,#380),#23,.F.);
#432=ADVANCED_FACE('',(#381,#382,#383,#384,#385),#409,.F.);
#433=ADVANCED_FACE('',(#386),#410,.T.);
#434=ADVANCED_FACE('',(#387),#411,.F.);
#435=ADVANCED_FACE('',(#388),#412,.T.);
#436=ADVANCED_FACE('',(#389,#390,#391,#392,#393,#394),#413,.T.);
#437=ADVANCED_FACE('',(#395),#414,.T.);
#438=ADVANCED_FACE('',(#396),#415,.T.);
#439=ADVANCED_FACE('',(#397),#416,.F.);
#440=ADVANCED_FACE('',(#398),#417,.F.);
#441=ADVANCED_FACE('',(#399),#418,.T.);
#442=ADVANCED_FACE('',(#400),#419,.T.);
#443=ADVANCED_FACE('',(#401),#420,.F.);
#444=ADVANCED_FACE('',(#402),#421,.F.);
#445=ADVANCED_FACE('',(#403),#422,.T.);
#446=CLOSED_SHELL('',(#423,#424,#425,#426,#427,#428,#429,#430,#431,#432,
#433,#434,#435,#436,#437,#438,#439,#440,#441,#442,#443,#444,#445));
#447=STYLED_ITEM('',(#448),#455);
#448=PRESENTATION_STYLE_ASSIGNMENT((#449));
#449=SURFACE_STYLE_USAGE(.BOTH.,#450);
#450=SURFACE_SIDE_STYLE('',(#451));
#451=SURFACE_STYLE_FILL_AREA(#452);
#452=FILL_AREA_STYLE('',(#453));
#453=FILL_AREA_STYLE_COLOUR('',#454);
#454=DRAUGHTING_PRE_DEFINED_COLOUR('red');
#455=MANIFOLD_SOLID_BREP('Part 1',#446);
#456=SHAPE_DEFINITION_REPRESENTATION(#728,#457);
#457=SHAPE_REPRESENTATION('Part 1',(#458),#723);
#458=AXIS2_PLACEMENT_3D('',#602,#490,#491);
#459=AXIS2_PLACEMENT_3D('',#603,#492,#493);
#460=AXIS2_PLACEMENT_3D('',#620,#502,#503);
#461=AXIS2_PLACEMENT_3D('',#637,#512,#513);
#462=AXIS2_PLACEMENT_3D('',#646,#518,#519);
#463=AXIS2_PLACEMENT_3D('',#655,#524,#525);
#464=AXIS2_PLACEMENT_3D('',#664,#530,#531);
#465=AXIS2_PLACEMENT_3D('',#665,#532,#533);
#466=AXIS2_PLACEMENT_3D('',#667,#534,#535);
#467=AXIS2_PLACEMENT_3D('',#669,#536,#537);
#468=AXIS2_PLACEMENT_3D('',#670,#538,#539);
#469=AXIS2_PLACEMENT_3D('',#672,#540,#541);
#470=AXIS2_PLACEMENT_3D('',#674,#542,#543);
#471=AXIS2_PLACEMENT_3D('',#675,#544,#545);
#472=AXIS2_PLACEMENT_3D('',#677,#546,#547);
#473=AXIS2_PLACEMENT_3D('',#679,#548,#549);
#474=AXIS2_PLACEMENT_3D('',#680,#550,#551);
#475=AXIS2_PLACEMENT_3D('',#682,#552,#553);
#476=AXIS2_PLACEMENT_3D('',#684,#554,#555);
#477=AXIS2_PLACEMENT_3D('',#689,#560,#561);
#478=AXIS2_PLACEMENT_3D('',#698,#566,#567);
#479=AXIS2_PLACEMENT_3D('',#701,#570,#571);
#480=AXIS2_PLACEMENT_3D('',#704,#574,#575);
#481=AXIS2_PLACEMENT_3D('',#709,#580,#581);
#482=AXIS2_PLACEMENT_3D('',#710,#582,#583);
#483=AXIS2_PLACEMENT_3D('',#713,#586,#587);
#484=AXIS2_PLACEMENT_3D('',#715,#589,#590);
#485=AXIS2_PLACEMENT_3D('',#717,#592,#593);
#486=AXIS2_PLACEMENT_3D('',#718,#594,#595);
#487=AXIS2_PLACEMENT_3D('',#719,#596,#597);
#488=AXIS2_PLACEMENT_3D('',#720,#598,#599);
#489=AXIS2_PLACEMENT_3D('',#721,#600,#601);
#490=DIRECTION('',(0.,0.,1.));
#491=DIRECTION('',(1.,0.,0.));
#492=DIRECTION('',(0.,-1.,0.));
#493=DIRECTION('',(0.,0.,-1.));
#494=DIRECTION('',(-1.,0.,0.));
#495=DIRECTION('',(0.,0.,-1.));
#496=DIRECTION('',(-1.,0.,0.));
#497=DIRECTION('',(0.,0.,1.));
#498=DIRECTION('',(-1.,0.,-1.44560289664734E-16));
#499=DIRECTION('',(0.,0.,-1.));
#500=DIRECTION('',(-1.,0.,-1.44560289664734E-16));
#501=DIRECTION('',(0.,0.,-1.));
#502=DIRECTION('',(-2.05596856412066E-16,-1.,0.));
#503=DIRECTION('',(1.,-2.05596856412066E-16,0.));
#504=DIRECTION('',(1.,-2.05596856412066E-16,0.));
#505=DIRECTION('',(0.,0.,-1.));
#506=DIRECTION('',(-1.,2.05596856412066E-16,0.));
#507=DIRECTION('',(0.,0.,-1.));
#508=DIRECTION('',(0.,0.,-1.));
#509=DIRECTION('',(-1.,2.05596856412066E-16,-1.44560289664734E-16));
#510=DIRECTION('',(0.,0.,-1.));
#511=DIRECTION('',(-1.,2.05596856412066E-16,-1.44560289664734E-16));
#512=DIRECTION('',(1.,0.,0.));
#513=DIRECTION('',(0.,0.,-1.));
#514=DIRECTION('',(0.,-1.,0.));
#515=DIRECTION('',(0.,0.,-1.));
#516=DIRECTION('',(0.,-1.,0.));
#517=DIRECTION('',(0.,0.,1.));
#518=DIRECTION('',(0.,-1.,0.));
#519=DIRECTION('',(0.,0.,-1.));
#520=DIRECTION('',(-1.,0.,0.));
#521=DIRECTION('',(0.,0.,1.));
#522=DIRECTION('',(-1.,0.,0.));
#523=DIRECTION('',(0.,0.,-1.));
#524=DIRECTION('',(1.,0.,0.));
#525=DIRECTION('',(0.,0.,-1.));
#526=DIRECTION('',(0.,-1.,0.));
#527=DIRECTION('',(0.,0.,1.));
#528=DIRECTION('',(0.,-1.,0.));
#529=DIRECTION('',(0.,0.,-1.));
#530=DIRECTION('',(0.,0.,-1.));
#531=DIRECTION('',(-1.,0.,0.));
#532=DIRECTION('',(0.,0.,1.));
#533=DIRECTION('',(1.,0.,0.));
#534=DIRECTION('',(0.,0.,1.));
#535=DIRECTION('',(1.,0.,0.));
#536=DIRECTION('',(0.,0.,-1.));
#537=DIRECTION('',(-1.,0.,0.));
#538=DIRECTION('',(0.,0.,-1.));
#539=DIRECTION('',(1.,0.,0.));
#540=DIRECTION('',(0.,0.,-1.));
#541=DIRECTION('',(1.,0.,0.));
#542=DIRECTION('',(0.,0.,-1.));
#543=DIRECTION('',(-1.,0.,0.));
#544=DIRECTION('',(0.,0.,1.));
#545=DIRECTION('',(1.,0.,0.));
#546=DIRECTION('',(0.,0.,1.));
#547=DIRECTION('',(1.,0.,0.));
#548=DIRECTION('',(0.,0.,-1.));
#549=DIRECTION('',(-1.,0.,0.));
#550=DIRECTION('',(0.,0.,-1.));
#551=DIRECTION('',(1.,0.,0.));
#552=DIRECTION('',(0.,0.,-1.));
#553=DIRECTION('',(1.,0.,0.));
#554=DIRECTION('',(0.,0.,1.));
#555=DIRECTION('',(1.,0.,0.));
#556=DIRECTION('',(-0.707106781186548,0.707106781186548,0.));
#557=DIRECTION('',(-0.707106781186548,-0.707106781186548,0.));
#558=DIRECTION('',(0.707106781186548,-0.707106781186548,0.));
#559=DIRECTION('',(0.707106781186548,0.707106781186548,0.));
#560=DIRECTION('',(0.,-1.,0.));
#561=DIRECTION('',(0.,0.,-1.));
#562=DIRECTION('',(0.,0.,-1.));
#563=DIRECTION('',(1.,0.,0.));
#564=DIRECTION('',(0.,0.,-1.));
#565=DIRECTION('',(-1.,0.,0.));
#566=DIRECTION('',(1.,8.46206573647223E-17,0.));
#567=DIRECTION('',(-8.46206573647223E-17,1.,0.));
#568=DIRECTION('',(-8.46206573647223E-17,1.,0.));
#569=DIRECTION('',(8.46206573647223E-17,-1.,0.));
#570=DIRECTION('',(1.,8.46206573647223E-17,0.));
#571=DIRECTION('',(-8.46206573647223E-17,1.,0.));
#572=DIRECTION('',(-8.46206573647223E-17,1.,0.));
#573=DIRECTION('',(8.46206573647223E-17,-1.,0.));
#574=DIRECTION('',(0.,0.,1.));
#575=DIRECTION('',(1.,0.,0.));
#576=DIRECTION('',(0.707106781186548,-0.707106781186548,0.));
#577=DIRECTION('',(-0.707106781186548,-0.707106781186548,0.));
#578=DIRECTION('',(-0.707106781186548,0.707106781186548,0.));
#579=DIRECTION('',(0.707106781186548,0.707106781186548,0.));
#580=DIRECTION('',(0.,0.,1.));
#581=DIRECTION('',(1.,0.,0.));
#582=DIRECTION('',(-1.,0.,0.));
#583=DIRECTION('',(0.,0.,1.));
#584=DIRECTION('',(0.,-1.,0.));
#585=DIRECTION('',(0.,-1.,0.));
#586=DIRECTION('',(-1.44560289664734E-16,0.,1.));
#587=DIRECTION('',(1.,0.,1.44560289664734E-16));
#588=DIRECTION('',(0.,-1.,0.));
#589=DIRECTION('',(-1.,0.,0.));
#590=DIRECTION('',(0.,0.,1.));
#591=DIRECTION('',(0.,-1.,0.));
#592=DIRECTION('',(-1.44560289664734E-16,0.,1.));
#593=DIRECTION('',(1.,0.,1.44560289664734E-16));
#594=DIRECTION('',(-0.707106781186548,-0.707106781186548,0.));
#595=DIRECTION('',(0.,0.,1.));
#596=DIRECTION('',(-0.707106781186548,0.707106781186548,0.));
#597=DIRECTION('',(0.,0.,-1.));
#598=DIRECTION('',(0.707106781186548,-0.707106781186548,0.));
#599=DIRECTION('',(0.,0.,-1.));
#600=DIRECTION('',(0.707106781186548,0.707106781186548,0.));
#601=DIRECTION('',(0.,0.,1.));
#602=CARTESIAN_POINT('',(0.,0.,0.));
#603=CARTESIAN_POINT('',(0.,-0.051,0.003));
#604=CARTESIAN_POINT('',(0.,-0.051,0.01524));
#605=CARTESIAN_POINT('',(0.03925,-0.051,0.01524));
#606=CARTESIAN_POINT('',(-0.03925,-0.051,0.01524));
#607=CARTESIAN_POINT('',(-0.03925,-0.051,0.));
#608=CARTESIAN_POINT('',(-0.03925,-0.051,0.));
#609=CARTESIAN_POINT('',(0.,-0.051,0.));
#610=CARTESIAN_POINT('',(0.03925,-0.051,0.));
#611=CARTESIAN_POINT('',(0.03925,-0.051,0.003));
#612=CARTESIAN_POINT('',(-0.02032,-0.051,0.0116096));
#613=CARTESIAN_POINT('',(-0.01432,-0.051,0.0116096));
#614=CARTESIAN_POINT('',(-0.02632,-0.051,0.0116096));
#615=CARTESIAN_POINT('',(-0.01432,-0.051,0.0093596));
#616=CARTESIAN_POINT('',(-0.01432,-0.051,0.0071096));
#617=CARTESIAN_POINT('',(-0.02032,-0.051,0.0071096));
#618=CARTESIAN_POINT('',(-0.02632,-0.051,0.0071096));
#619=CARTESIAN_POINT('',(-0.02632,-0.051,0.0093596));
#620=CARTESIAN_POINT('',(5.55111512312578E-17,-0.041,0.01524));
#621=CARTESIAN_POINT('',(-8.42947111289471E-18,-0.041,0.003));
#622=CARTESIAN_POINT('',(-0.03375,-0.041,0.003));
#623=CARTESIAN_POINT('',(0.03375,-0.041,0.003));
#624=CARTESIAN_POINT('',(-0.03375,-0.041,0.01524));
#625=CARTESIAN_POINT('',(-0.03375,-0.041,0.01524));
#626=CARTESIAN_POINT('',(5.55111512312578E-17,-0.041,0.01524));
#627=CARTESIAN_POINT('',(0.03375,-0.041,0.01524));
#628=CARTESIAN_POINT('',(0.03375,-0.041,0.01524));
#629=CARTESIAN_POINT('',(-0.01432,-0.041,0.01524));
#630=CARTESIAN_POINT('',(-0.01432,-0.041,0.0116096));
#631=CARTESIAN_POINT('',(-0.01432,-0.041,0.0071096));
#632=CARTESIAN_POINT('',(5.60359629068567E-17,-0.041,0.0116096));
#633=CARTESIAN_POINT('',(-0.02632,-0.041,0.0116096));
#634=CARTESIAN_POINT('',(-0.02632,-0.041,0.01524));
#635=CARTESIAN_POINT('',(-0.02632,-0.041,0.0071096));
#636=CARTESIAN_POINT('',(5.6686484210348E-17,-0.041,0.0071096));
#637=CARTESIAN_POINT('',(0.04375,0.,0.003));
#638=CARTESIAN_POINT('',(0.04375,0.,0.01524));
#639=CARTESIAN_POINT('',(0.04375,0.0465,0.01524));
#640=CARTESIAN_POINT('',(0.04375,-0.0465,0.01524));
#641=CARTESIAN_POINT('',(0.04375,-0.0465,0.003));
#642=CARTESIAN_POINT('',(0.04375,-0.0465,0.));
#643=CARTESIAN_POINT('',(0.04375,0.,0.));
#644=CARTESIAN_POINT('',(0.04375,0.0465,0.));
#645=CARTESIAN_POINT('',(0.04375,0.0465,0.01524));
#646=CARTESIAN_POINT('',(0.,0.051,0.003));
#647=CARTESIAN_POINT('',(0.,0.051,0.));
#648=CARTESIAN_POINT('',(0.03925,0.051,0.));
#649=CARTESIAN_POINT('',(-0.03925,0.051,0.));
#650=CARTESIAN_POINT('',(-0.03925,0.051,0.003));
#651=CARTESIAN_POINT('',(-0.03925,0.051,0.01524));
#652=CARTESIAN_POINT('',(0.,0.051,0.01524));
#653=CARTESIAN_POINT('',(0.03925,0.051,0.01524));
#654=CARTESIAN_POINT('',(0.03925,0.051,0.));
#655=CARTESIAN_POINT('',(-0.04375,0.,0.003));
#656=CARTESIAN_POINT('',(-0.04375,0.,0.));
#657=CARTESIAN_POINT('',(-0.04375,0.0465,0.));
#658=CARTESIAN_POINT('',(-0.04375,-0.0465,0.));
#659=CARTESIAN_POINT('',(-0.04375,-0.0465,0.01524));
#660=CARTESIAN_POINT('',(-0.04375,-0.0465,0.01524));
#661=CARTESIAN_POINT('',(-0.04375,0.,0.01524));
#662=CARTESIAN_POINT('',(-0.04375,0.0465,0.01524));
#663=CARTESIAN_POINT('',(-0.04375,0.0465,0.003));
#664=CARTESIAN_POINT('',(0.03625,-0.0435,0.003));
#665=CARTESIAN_POINT('',(0.03625,-0.0435,0.));
#666=CARTESIAN_POINT('',(0.0377,-0.0435,0.));
#667=CARTESIAN_POINT('',(0.03625,-0.0435,0.01524));
#668=CARTESIAN_POINT('',(0.0377,-0.0435,0.01524));
#669=CARTESIAN_POINT('',(-0.03625,-0.0435,0.003));
#670=CARTESIAN_POINT('',(-0.03625,-0.0435,0.));
#671=CARTESIAN_POINT('',(-0.0348,-0.0435,0.));
#672=CARTESIAN_POINT('',(-0.03625,-0.0435,0.01524));
#673=CARTESIAN_POINT('',(-0.0348,-0.0435,0.01524));
#674=CARTESIAN_POINT('',(-0.03625,0.0435,0.003));
#675=CARTESIAN_POINT('',(-0.03625,0.0435,0.));
#676=CARTESIAN_POINT('',(-0.0348,0.0435,0.));
#677=CARTESIAN_POINT('',(-0.03625,0.0435,0.01524));
#678=CARTESIAN_POINT('',(-0.0348,0.0435,0.01524));
#679=CARTESIAN_POINT('',(0.03625,0.0435,0.003));
#680=CARTESIAN_POINT('',(0.03625,0.0435,0.));
#681=CARTESIAN_POINT('',(0.0377,0.0435,0.));
#682=CARTESIAN_POINT('',(0.03625,0.0435,0.01524));
#683=CARTESIAN_POINT('',(0.0377,0.0435,0.01524));
#684=CARTESIAN_POINT('',(0.,-6.93889390390723E-18,0.));
#685=CARTESIAN_POINT('',(-0.03925,-0.051,0.));
#686=CARTESIAN_POINT('',(-0.04375,0.0465,0.));
#687=CARTESIAN_POINT('',(0.03925,0.051,0.));
#688=CARTESIAN_POINT('',(0.04375,-0.0465,0.));
#689=CARTESIAN_POINT('',(-5.55111512312578E-17,0.041,0.01524));
#690=CARTESIAN_POINT('',(-0.03375,0.041,0.01524));
#691=CARTESIAN_POINT('',(-0.03375,0.041,0.01524));
#692=CARTESIAN_POINT('',(-0.03375,0.041,0.003));
#693=CARTESIAN_POINT('',(0.,0.041,0.003));
#694=CARTESIAN_POINT('',(0.03375,0.041,0.003));
#695=CARTESIAN_POINT('',(0.03375,0.041,0.01524));
#696=CARTESIAN_POINT('',(0.03375,0.041,0.01524));
#697=CARTESIAN_POINT('',(-5.55111512312578E-17,0.041,0.01524));
#698=CARTESIAN_POINT('',(0.03375,0.,0.01524));
#699=CARTESIAN_POINT('',(0.03375,-4.08294671784785E-18,0.003));
#700=CARTESIAN_POINT('',(0.03375,0.,0.01524));
#701=CARTESIAN_POINT('',(-0.03375,0.,0.01524));
#702=CARTESIAN_POINT('',(-0.03375,-9.79484108996661E-18,0.003));
#703=CARTESIAN_POINT('',(-0.03375,0.,0.01524));
#704=CARTESIAN_POINT('',(0.,-6.93889390390723E-18,0.01524));
#705=CARTESIAN_POINT('',(-0.045125,-0.045125,0.01524));
#706=CARTESIAN_POINT('',(0.045125,-0.045125,0.01524));
#707=CARTESIAN_POINT('',(0.045125,0.045125,0.01524));
#708=CARTESIAN_POINT('',(-0.045125,0.045125,0.01524));
#709=CARTESIAN_POINT('',(0.,-6.93889390390723E-18,0.003));
#710=CARTESIAN_POINT('',(-0.01432,-0.0256,0.0093596));
#711=CARTESIAN_POINT('',(-0.01432,-0.0256,0.0071096));
#712=CARTESIAN_POINT('',(-0.01432,-0.0256,0.0116096));
#713=CARTESIAN_POINT('',(-0.02032,-0.0256,0.0116096));
#714=CARTESIAN_POINT('',(-0.02632,-0.0256,0.0116096));
#715=CARTESIAN_POINT('',(-0.02632,-0.0256,0.0093596));
#716=CARTESIAN_POINT('',(-0.02632,-0.0256,0.0071096));
#717=CARTESIAN_POINT('',(-0.02032,-0.0256,0.0071096));
#718=CARTESIAN_POINT('',(-0.03925,-0.051,0.003));
#719=CARTESIAN_POINT('',(0.04375,-0.0465,0.003));
#720=CARTESIAN_POINT('',(-0.04375,0.0465,0.003));
#721=CARTESIAN_POINT('',(0.03925,0.051,0.003));
#722=MECHANICAL_DESIGN_GEOMETRIC_PRESENTATION_REPRESENTATION('',(#447),
#723);
#723=(
GEOMETRIC_REPRESENTATION_CONTEXT(3)
GLOBAL_UNCERTAINTY_ASSIGNED_CONTEXT((#724))
GLOBAL_UNIT_ASSIGNED_CONTEXT((#727,#726,#725))
REPRESENTATION_CONTEXT('Part 1','TOP_LEVEL_ASSEMBLY_PART')
);
#724=UNCERTAINTY_MEASURE_WITH_UNIT(LENGTH_MEASURE(1.E-8),#727,
'DISTANCE_ACCURACY_VALUE','Maximum Tolerance applied to model');
#725=(
NAMED_UNIT(*)
SI_UNIT($,.STERADIAN.)
SOLID_ANGLE_UNIT()
);
#726=(
NAMED_UNIT(*)
PLANE_ANGLE_UNIT()
SI_UNIT($,.RADIAN.)
);
#727=(
LENGTH_UNIT()
NAMED_UNIT(*)
SI_UNIT($,.METRE.)
);
#728=PRODUCT_DEFINITION_SHAPE('','',#729);
#729=PRODUCT_DEFINITION('','',#731,#730);
#730=PRODUCT_DEFINITION_CONTEXT('',#737,'design');
#731=PRODUCT_DEFINITION_FORMATION_WITH_SPECIFIED_SOURCE('','',#733,
 .NOT_KNOWN.);
#732=PRODUCT_RELATED_PRODUCT_CATEGORY('','',(#733));
#733=PRODUCT('Part 1','Part 1','Part 1',(#735));
#734=PRODUCT_CATEGORY('','');
#735=PRODUCT_CONTEXT('',#737,'mechanical');
#736=APPLICATION_PROTOCOL_DEFINITION('international standard',
'ap242_managed_model_based_3d_engineering',2020,#737);
#737=APPLICATION_CONTEXT('managed model based 3d engineering');
ENDSEC;
END-ISO-10303-21;
