%TF.GenerationSoftware,KiCad,Pcbnew,10.0.5*%
%TF.CreationDate,2026-09-11T17:52:54-07:00*%
%TF.ProjectId,hackpad,6861636b-7061-4642-9e6b-696361645f70,rev?*%
%TF.SameCoordinates,Original*%
%TF.FileFunction,Soldermask,Bot*%
%TF.FilePolarity,Negative*%
%FSLAX46Y46*%
G04 Gerber Fmt 4.6, Leading zero omitted, Abs format (unit mm)*
G04 Created by KiCad (PCBNEW 10.0.5) date 2026-09-11 17:52:54*
%MOMM*%
%LPD*%
G01*
G04 APERTURE LIST*
G04 Aperture macros list*
%AMRoundRect*
0 Rectangle with rounded corners*
0 $1 Rounding radius*
0 $2 $3 $4 $5 $6 $7 $8 $9 X,Y pos of 4 corners*
0 Add a 4 corners polygon primitive as box body*
4,1,4,$2,$3,$4,$5,$6,$7,$8,$9,$2,$3,0*
0 Add four circle primitives for the rounded corners*
1,1,$1+$1,$2,$3*
1,1,$1+$1,$4,$5*
1,1,$1+$1,$6,$7*
1,1,$1+$1,$8,$9*
0 Add four rect primitives between the rounded corners*
20,1,$1+$1,$2,$3,$4,$5,0*
20,1,$1+$1,$4,$5,$6,$7,0*
20,1,$1+$1,$6,$7,$8,$9,0*
20,1,$1+$1,$8,$9,$2,$3,0*%
G04 Aperture macros list end*
%ADD10RoundRect,0.250000X0.550000X-0.550000X0.550000X0.550000X-0.550000X0.550000X-0.550000X-0.550000X0*%
%ADD11C,1.600000*%
%ADD12RoundRect,0.250000X0.550000X0.550000X-0.550000X0.550000X-0.550000X-0.550000X0.550000X-0.550000X0*%
%ADD13C,1.700000*%
%ADD14C,4.000000*%
%ADD15C,2.200000*%
%ADD16RoundRect,0.250000X-0.550000X-0.550000X0.550000X-0.550000X0.550000X0.550000X-0.550000X0.550000X0*%
%ADD17R,1.700000X1.700000*%
%ADD18O,1.700000X1.700000*%
%ADD19R,3.500000X1.700000*%
%ADD20O,3.600000X1.700000*%
%ADD21O,3.700000X1.700000*%
%ADD22RoundRect,0.205000X-0.470000X-0.205000X0.470000X-0.205000X0.470000X0.205000X-0.470000X0.205000X0*%
G04 APERTURE END LIST*
D10*
%TO.C,D10*%
X212000000Y-104500000D03*
D11*
X212000000Y-96880000D03*
%TD*%
D12*
%TO.C,D11*%
X171000000Y-122500000D03*
D11*
X163380000Y-122500000D03*
%TD*%
D13*
%TO.C,SW7*%
X161920000Y-111500000D03*
D14*
X167000000Y-111500000D03*
D13*
X172080000Y-111500000D03*
D15*
X169540000Y-106420000D03*
X163190000Y-108960000D03*
%TD*%
D13*
%TO.C,SW10*%
X196000000Y-111500000D03*
D14*
X201080000Y-111500000D03*
D13*
X206160000Y-111500000D03*
D15*
X203620000Y-106420000D03*
X197270000Y-108960000D03*
%TD*%
D13*
%TO.C,SW4*%
X161840000Y-94500000D03*
D14*
X166920000Y-94500000D03*
D13*
X172000000Y-94500000D03*
D15*
X169460000Y-89420000D03*
X163110000Y-91960000D03*
%TD*%
D13*
%TO.C,SW5*%
X178840000Y-94500000D03*
D14*
X183920000Y-94500000D03*
D13*
X189000000Y-94500000D03*
D15*
X186460000Y-89420000D03*
X180110000Y-91960000D03*
%TD*%
D10*
%TO.C,D8*%
X156000000Y-96810000D03*
D11*
X156000000Y-89190000D03*
%TD*%
D10*
%TO.C,D9*%
X212000000Y-93310000D03*
D11*
X212000000Y-85690000D03*
%TD*%
D12*
%TO.C,D13*%
X206000000Y-122500000D03*
D11*
X198380000Y-122500000D03*
%TD*%
D16*
%TO.C,D6*%
X164380000Y-64000000D03*
D11*
X172000000Y-64000000D03*
%TD*%
D12*
%TO.C,D12*%
X189000000Y-122500000D03*
D11*
X181380000Y-122500000D03*
%TD*%
D13*
%TO.C,SW2*%
X178840000Y-77500000D03*
D14*
X183920000Y-77500000D03*
D13*
X189000000Y-77500000D03*
D15*
X186460000Y-72420000D03*
X180110000Y-74960000D03*
%TD*%
D13*
%TO.C,SW9*%
X178920000Y-111500000D03*
D14*
X184000000Y-111500000D03*
D13*
X189080000Y-111500000D03*
D15*
X186540000Y-106420000D03*
X180190000Y-108960000D03*
%TD*%
D17*
%TO.C,U2*%
X190115000Y-49805000D03*
D18*
X190115000Y-52345000D03*
X190115000Y-54885000D03*
X190115000Y-57425000D03*
%TD*%
D13*
%TO.C,SW1*%
X161840000Y-77500000D03*
D14*
X166920000Y-77500000D03*
D13*
X172000000Y-77500000D03*
D15*
X169460000Y-72420000D03*
X163110000Y-74960000D03*
%TD*%
D19*
%TO.C,U1*%
X195500000Y-48760000D03*
D20*
X195500000Y-51300000D03*
X195500000Y-53840000D03*
X195500000Y-56380000D03*
X195500000Y-58920000D03*
X195500000Y-61460000D03*
X195500000Y-64000000D03*
X212750000Y-64000000D03*
X212750000Y-61460000D03*
X212750000Y-58920000D03*
D21*
X212750000Y-56380000D03*
X212750000Y-53840000D03*
X212750000Y-51300000D03*
X212750000Y-48760000D03*
%TD*%
D13*
%TO.C,SW3*%
X196000000Y-77500000D03*
D14*
X201080000Y-77500000D03*
D13*
X206160000Y-77500000D03*
D15*
X203620000Y-72420000D03*
X197270000Y-74960000D03*
%TD*%
D13*
%TO.C,SW6*%
X196000000Y-94500000D03*
D14*
X201080000Y-94500000D03*
D13*
X206160000Y-94500000D03*
D15*
X203620000Y-89420000D03*
X197270000Y-91960000D03*
%TD*%
D16*
%TO.C,D5*%
X153880000Y-64000000D03*
D11*
X161500000Y-64000000D03*
%TD*%
D16*
%TO.C,D7*%
X174880000Y-64000000D03*
D11*
X182500000Y-64000000D03*
%TD*%
D22*
%TO.C,D4*%
X172775000Y-85250000D03*
X172775000Y-86750000D03*
X178225000Y-86750000D03*
X178225000Y-85250000D03*
%TD*%
%TO.C,D3*%
X172775000Y-102250000D03*
X172775000Y-103750000D03*
X178225000Y-103750000D03*
X178225000Y-102250000D03*
%TD*%
%TO.C,D2*%
X189775000Y-102250000D03*
X189775000Y-103750000D03*
X195225000Y-103750000D03*
X195225000Y-102250000D03*
%TD*%
%TO.C,D1*%
X189775000Y-85250000D03*
X189775000Y-86750000D03*
X195225000Y-86750000D03*
X195225000Y-85250000D03*
%TD*%
M02*
