M48
; DRILL file KiCad 10.0.5 date 2026-09-11T17:53:00
; FORMAT={-:-/ absolute / metric / decimal}
; #@! TF.CreationDate,2026-09-11T17:53:00-07:00
; #@! TF.GenerationSoftware,Kicad,Pcbnew,10.0.5
; #@! TF.FileFunction,Plated,1,2,PTH
FMAT,2
METRIC
; #@! TA.AperFunction,Plated,PTH,ComponentDrill
T1C0.800
; #@! TA.AperFunction,Plated,PTH,ComponentDrill
T2C1.000
; #@! TA.AperFunction,Plated,PTH,ComponentDrill
T3C1.500
%
G90
G05
T1
X153.88Y-64.0
X156.0Y-89.19
X156.0Y-96.81
X161.5Y-64.0
X163.38Y-122.5
X164.38Y-64.0
X171.0Y-122.5
X172.0Y-64.0
X174.88Y-64.0
X181.38Y-122.5
X182.5Y-64.0
X189.0Y-122.5
X198.38Y-122.5
X206.0Y-122.5
X212.0Y-85.69
X212.0Y-93.31
X212.0Y-96.88
X212.0Y-104.5
T2
X190.115Y-49.805
X190.115Y-52.345
X190.115Y-54.885
X190.115Y-57.425
X196.5Y-48.76
X196.5Y-51.3
X196.5Y-53.84
X196.5Y-56.38
X196.5Y-58.92
X196.5Y-61.46
X196.5Y-64.0
X211.75Y-48.76
X211.75Y-51.3
X211.75Y-53.84
X211.75Y-56.38
X211.75Y-58.92
X211.75Y-61.46
X211.75Y-64.0
T3
X163.11Y-74.96
X163.11Y-91.96
X163.19Y-108.96
X169.46Y-72.42
X169.46Y-89.42
X169.54Y-106.42
X180.11Y-74.96
X180.11Y-91.96
X180.19Y-108.96
X186.46Y-72.42
X186.46Y-89.42
X186.54Y-106.42
X197.27Y-74.96
X197.27Y-91.96
X197.27Y-108.96
X203.62Y-72.42
X203.62Y-89.42
X203.62Y-106.42
M30
