%TF.GenerationSoftware,KiCad,Pcbnew,10.0.5*%
%TF.CreationDate,2026-09-11T17:52:54-07:00*%
%TF.ProjectId,hackpad,6861636b-7061-4642-9e6b-696361645f70,rev?*%
%TF.SameCoordinates,Original*%
%TF.FileFunction,Legend,Top*%
%TF.FilePolarity,Positive*%
%FSLAX46Y46*%
G04 Gerber Fmt 4.6, Leading zero omitted, Abs format (unit mm)*
G04 Created by KiCad (PCBNEW 10.0.5) date 2026-09-11 17:52:54*
%MOMM*%
%LPD*%
G01*
G04 APERTURE LIST*
%ADD10C,0.150000*%
%ADD11C,0.101600*%
%ADD12C,0.120000*%
%ADD13C,0.040000*%
%ADD14C,0.127000*%
%ADD15C,0.254000*%
%ADD16C,0.025400*%
G04 APERTURE END LIST*
D10*
X210334819Y-101904285D02*
X209334819Y-101904285D01*
X209334819Y-101904285D02*
X209334819Y-101666190D01*
X209334819Y-101666190D02*
X209382438Y-101523333D01*
X209382438Y-101523333D02*
X209477676Y-101428095D01*
X209477676Y-101428095D02*
X209572914Y-101380476D01*
X209572914Y-101380476D02*
X209763390Y-101332857D01*
X209763390Y-101332857D02*
X209906247Y-101332857D01*
X209906247Y-101332857D02*
X210096723Y-101380476D01*
X210096723Y-101380476D02*
X210191961Y-101428095D01*
X210191961Y-101428095D02*
X210287200Y-101523333D01*
X210287200Y-101523333D02*
X210334819Y-101666190D01*
X210334819Y-101666190D02*
X210334819Y-101904285D01*
X210334819Y-100380476D02*
X210334819Y-100951904D01*
X210334819Y-100666190D02*
X209334819Y-100666190D01*
X209334819Y-100666190D02*
X209477676Y-100761428D01*
X209477676Y-100761428D02*
X209572914Y-100856666D01*
X209572914Y-100856666D02*
X209620533Y-100951904D01*
X209334819Y-99761428D02*
X209334819Y-99666190D01*
X209334819Y-99666190D02*
X209382438Y-99570952D01*
X209382438Y-99570952D02*
X209430057Y-99523333D01*
X209430057Y-99523333D02*
X209525295Y-99475714D01*
X209525295Y-99475714D02*
X209715771Y-99428095D01*
X209715771Y-99428095D02*
X209953866Y-99428095D01*
X209953866Y-99428095D02*
X210144342Y-99475714D01*
X210144342Y-99475714D02*
X210239580Y-99523333D01*
X210239580Y-99523333D02*
X210287200Y-99570952D01*
X210287200Y-99570952D02*
X210334819Y-99666190D01*
X210334819Y-99666190D02*
X210334819Y-99761428D01*
X210334819Y-99761428D02*
X210287200Y-99856666D01*
X210287200Y-99856666D02*
X210239580Y-99904285D01*
X210239580Y-99904285D02*
X210144342Y-99951904D01*
X210144342Y-99951904D02*
X209953866Y-99999523D01*
X209953866Y-99999523D02*
X209715771Y-99999523D01*
X209715771Y-99999523D02*
X209525295Y-99951904D01*
X209525295Y-99951904D02*
X209430057Y-99904285D01*
X209430057Y-99904285D02*
X209382438Y-99856666D01*
X209382438Y-99856666D02*
X209334819Y-99761428D01*
X210654819Y-104761904D02*
X209654819Y-104761904D01*
X210654819Y-104190476D02*
X210083390Y-104619047D01*
X209654819Y-104190476D02*
X210226247Y-104761904D01*
X165975714Y-125074819D02*
X165975714Y-124074819D01*
X165975714Y-124074819D02*
X166213809Y-124074819D01*
X166213809Y-124074819D02*
X166356666Y-124122438D01*
X166356666Y-124122438D02*
X166451904Y-124217676D01*
X166451904Y-124217676D02*
X166499523Y-124312914D01*
X166499523Y-124312914D02*
X166547142Y-124503390D01*
X166547142Y-124503390D02*
X166547142Y-124646247D01*
X166547142Y-124646247D02*
X166499523Y-124836723D01*
X166499523Y-124836723D02*
X166451904Y-124931961D01*
X166451904Y-124931961D02*
X166356666Y-125027200D01*
X166356666Y-125027200D02*
X166213809Y-125074819D01*
X166213809Y-125074819D02*
X165975714Y-125074819D01*
X167499523Y-125074819D02*
X166928095Y-125074819D01*
X167213809Y-125074819D02*
X167213809Y-124074819D01*
X167213809Y-124074819D02*
X167118571Y-124217676D01*
X167118571Y-124217676D02*
X167023333Y-124312914D01*
X167023333Y-124312914D02*
X166928095Y-124360533D01*
X168451904Y-125074819D02*
X167880476Y-125074819D01*
X168166190Y-125074819D02*
X168166190Y-124074819D01*
X168166190Y-124074819D02*
X168070952Y-124217676D01*
X168070952Y-124217676D02*
X167975714Y-124312914D01*
X167975714Y-124312914D02*
X167880476Y-124360533D01*
X170738095Y-124754819D02*
X170738095Y-123754819D01*
X171309523Y-124754819D02*
X170880952Y-124183390D01*
X171309523Y-123754819D02*
X170738095Y-124326247D01*
X165666667Y-104033200D02*
X165809524Y-104080819D01*
X165809524Y-104080819D02*
X166047619Y-104080819D01*
X166047619Y-104080819D02*
X166142857Y-104033200D01*
X166142857Y-104033200D02*
X166190476Y-103985580D01*
X166190476Y-103985580D02*
X166238095Y-103890342D01*
X166238095Y-103890342D02*
X166238095Y-103795104D01*
X166238095Y-103795104D02*
X166190476Y-103699866D01*
X166190476Y-103699866D02*
X166142857Y-103652247D01*
X166142857Y-103652247D02*
X166047619Y-103604628D01*
X166047619Y-103604628D02*
X165857143Y-103557009D01*
X165857143Y-103557009D02*
X165761905Y-103509390D01*
X165761905Y-103509390D02*
X165714286Y-103461771D01*
X165714286Y-103461771D02*
X165666667Y-103366533D01*
X165666667Y-103366533D02*
X165666667Y-103271295D01*
X165666667Y-103271295D02*
X165714286Y-103176057D01*
X165714286Y-103176057D02*
X165761905Y-103128438D01*
X165761905Y-103128438D02*
X165857143Y-103080819D01*
X165857143Y-103080819D02*
X166095238Y-103080819D01*
X166095238Y-103080819D02*
X166238095Y-103128438D01*
X166571429Y-103080819D02*
X166809524Y-104080819D01*
X166809524Y-104080819D02*
X167000000Y-103366533D01*
X167000000Y-103366533D02*
X167190476Y-104080819D01*
X167190476Y-104080819D02*
X167428572Y-103080819D01*
X167714286Y-103080819D02*
X168380952Y-103080819D01*
X168380952Y-103080819D02*
X167952381Y-104080819D01*
X199270476Y-104033200D02*
X199413333Y-104080819D01*
X199413333Y-104080819D02*
X199651428Y-104080819D01*
X199651428Y-104080819D02*
X199746666Y-104033200D01*
X199746666Y-104033200D02*
X199794285Y-103985580D01*
X199794285Y-103985580D02*
X199841904Y-103890342D01*
X199841904Y-103890342D02*
X199841904Y-103795104D01*
X199841904Y-103795104D02*
X199794285Y-103699866D01*
X199794285Y-103699866D02*
X199746666Y-103652247D01*
X199746666Y-103652247D02*
X199651428Y-103604628D01*
X199651428Y-103604628D02*
X199460952Y-103557009D01*
X199460952Y-103557009D02*
X199365714Y-103509390D01*
X199365714Y-103509390D02*
X199318095Y-103461771D01*
X199318095Y-103461771D02*
X199270476Y-103366533D01*
X199270476Y-103366533D02*
X199270476Y-103271295D01*
X199270476Y-103271295D02*
X199318095Y-103176057D01*
X199318095Y-103176057D02*
X199365714Y-103128438D01*
X199365714Y-103128438D02*
X199460952Y-103080819D01*
X199460952Y-103080819D02*
X199699047Y-103080819D01*
X199699047Y-103080819D02*
X199841904Y-103128438D01*
X200175238Y-103080819D02*
X200413333Y-104080819D01*
X200413333Y-104080819D02*
X200603809Y-103366533D01*
X200603809Y-103366533D02*
X200794285Y-104080819D01*
X200794285Y-104080819D02*
X201032381Y-103080819D01*
X201937142Y-104080819D02*
X201365714Y-104080819D01*
X201651428Y-104080819D02*
X201651428Y-103080819D01*
X201651428Y-103080819D02*
X201556190Y-103223676D01*
X201556190Y-103223676D02*
X201460952Y-103318914D01*
X201460952Y-103318914D02*
X201365714Y-103366533D01*
X202556190Y-103080819D02*
X202651428Y-103080819D01*
X202651428Y-103080819D02*
X202746666Y-103128438D01*
X202746666Y-103128438D02*
X202794285Y-103176057D01*
X202794285Y-103176057D02*
X202841904Y-103271295D01*
X202841904Y-103271295D02*
X202889523Y-103461771D01*
X202889523Y-103461771D02*
X202889523Y-103699866D01*
X202889523Y-103699866D02*
X202841904Y-103890342D01*
X202841904Y-103890342D02*
X202794285Y-103985580D01*
X202794285Y-103985580D02*
X202746666Y-104033200D01*
X202746666Y-104033200D02*
X202651428Y-104080819D01*
X202651428Y-104080819D02*
X202556190Y-104080819D01*
X202556190Y-104080819D02*
X202460952Y-104033200D01*
X202460952Y-104033200D02*
X202413333Y-103985580D01*
X202413333Y-103985580D02*
X202365714Y-103890342D01*
X202365714Y-103890342D02*
X202318095Y-103699866D01*
X202318095Y-103699866D02*
X202318095Y-103461771D01*
X202318095Y-103461771D02*
X202365714Y-103271295D01*
X202365714Y-103271295D02*
X202413333Y-103176057D01*
X202413333Y-103176057D02*
X202460952Y-103128438D01*
X202460952Y-103128438D02*
X202556190Y-103080819D01*
X165586667Y-87033200D02*
X165729524Y-87080819D01*
X165729524Y-87080819D02*
X165967619Y-87080819D01*
X165967619Y-87080819D02*
X166062857Y-87033200D01*
X166062857Y-87033200D02*
X166110476Y-86985580D01*
X166110476Y-86985580D02*
X166158095Y-86890342D01*
X166158095Y-86890342D02*
X166158095Y-86795104D01*
X166158095Y-86795104D02*
X166110476Y-86699866D01*
X166110476Y-86699866D02*
X166062857Y-86652247D01*
X166062857Y-86652247D02*
X165967619Y-86604628D01*
X165967619Y-86604628D02*
X165777143Y-86557009D01*
X165777143Y-86557009D02*
X165681905Y-86509390D01*
X165681905Y-86509390D02*
X165634286Y-86461771D01*
X165634286Y-86461771D02*
X165586667Y-86366533D01*
X165586667Y-86366533D02*
X165586667Y-86271295D01*
X165586667Y-86271295D02*
X165634286Y-86176057D01*
X165634286Y-86176057D02*
X165681905Y-86128438D01*
X165681905Y-86128438D02*
X165777143Y-86080819D01*
X165777143Y-86080819D02*
X166015238Y-86080819D01*
X166015238Y-86080819D02*
X166158095Y-86128438D01*
X166491429Y-86080819D02*
X166729524Y-87080819D01*
X166729524Y-87080819D02*
X166920000Y-86366533D01*
X166920000Y-86366533D02*
X167110476Y-87080819D01*
X167110476Y-87080819D02*
X167348572Y-86080819D01*
X168158095Y-86414152D02*
X168158095Y-87080819D01*
X167920000Y-86033200D02*
X167681905Y-86747485D01*
X167681905Y-86747485D02*
X168300952Y-86747485D01*
X182586667Y-87033200D02*
X182729524Y-87080819D01*
X182729524Y-87080819D02*
X182967619Y-87080819D01*
X182967619Y-87080819D02*
X183062857Y-87033200D01*
X183062857Y-87033200D02*
X183110476Y-86985580D01*
X183110476Y-86985580D02*
X183158095Y-86890342D01*
X183158095Y-86890342D02*
X183158095Y-86795104D01*
X183158095Y-86795104D02*
X183110476Y-86699866D01*
X183110476Y-86699866D02*
X183062857Y-86652247D01*
X183062857Y-86652247D02*
X182967619Y-86604628D01*
X182967619Y-86604628D02*
X182777143Y-86557009D01*
X182777143Y-86557009D02*
X182681905Y-86509390D01*
X182681905Y-86509390D02*
X182634286Y-86461771D01*
X182634286Y-86461771D02*
X182586667Y-86366533D01*
X182586667Y-86366533D02*
X182586667Y-86271295D01*
X182586667Y-86271295D02*
X182634286Y-86176057D01*
X182634286Y-86176057D02*
X182681905Y-86128438D01*
X182681905Y-86128438D02*
X182777143Y-86080819D01*
X182777143Y-86080819D02*
X183015238Y-86080819D01*
X183015238Y-86080819D02*
X183158095Y-86128438D01*
X183491429Y-86080819D02*
X183729524Y-87080819D01*
X183729524Y-87080819D02*
X183920000Y-86366533D01*
X183920000Y-86366533D02*
X184110476Y-87080819D01*
X184110476Y-87080819D02*
X184348572Y-86080819D01*
X185205714Y-86080819D02*
X184729524Y-86080819D01*
X184729524Y-86080819D02*
X184681905Y-86557009D01*
X184681905Y-86557009D02*
X184729524Y-86509390D01*
X184729524Y-86509390D02*
X184824762Y-86461771D01*
X184824762Y-86461771D02*
X185062857Y-86461771D01*
X185062857Y-86461771D02*
X185158095Y-86509390D01*
X185158095Y-86509390D02*
X185205714Y-86557009D01*
X185205714Y-86557009D02*
X185253333Y-86652247D01*
X185253333Y-86652247D02*
X185253333Y-86890342D01*
X185253333Y-86890342D02*
X185205714Y-86985580D01*
X185205714Y-86985580D02*
X185158095Y-87033200D01*
X185158095Y-87033200D02*
X185062857Y-87080819D01*
X185062857Y-87080819D02*
X184824762Y-87080819D01*
X184824762Y-87080819D02*
X184729524Y-87033200D01*
X184729524Y-87033200D02*
X184681905Y-86985580D01*
X154334819Y-93738094D02*
X153334819Y-93738094D01*
X153334819Y-93738094D02*
X153334819Y-93499999D01*
X153334819Y-93499999D02*
X153382438Y-93357142D01*
X153382438Y-93357142D02*
X153477676Y-93261904D01*
X153477676Y-93261904D02*
X153572914Y-93214285D01*
X153572914Y-93214285D02*
X153763390Y-93166666D01*
X153763390Y-93166666D02*
X153906247Y-93166666D01*
X153906247Y-93166666D02*
X154096723Y-93214285D01*
X154096723Y-93214285D02*
X154191961Y-93261904D01*
X154191961Y-93261904D02*
X154287200Y-93357142D01*
X154287200Y-93357142D02*
X154334819Y-93499999D01*
X154334819Y-93499999D02*
X154334819Y-93738094D01*
X153763390Y-92595237D02*
X153715771Y-92690475D01*
X153715771Y-92690475D02*
X153668152Y-92738094D01*
X153668152Y-92738094D02*
X153572914Y-92785713D01*
X153572914Y-92785713D02*
X153525295Y-92785713D01*
X153525295Y-92785713D02*
X153430057Y-92738094D01*
X153430057Y-92738094D02*
X153382438Y-92690475D01*
X153382438Y-92690475D02*
X153334819Y-92595237D01*
X153334819Y-92595237D02*
X153334819Y-92404761D01*
X153334819Y-92404761D02*
X153382438Y-92309523D01*
X153382438Y-92309523D02*
X153430057Y-92261904D01*
X153430057Y-92261904D02*
X153525295Y-92214285D01*
X153525295Y-92214285D02*
X153572914Y-92214285D01*
X153572914Y-92214285D02*
X153668152Y-92261904D01*
X153668152Y-92261904D02*
X153715771Y-92309523D01*
X153715771Y-92309523D02*
X153763390Y-92404761D01*
X153763390Y-92404761D02*
X153763390Y-92595237D01*
X153763390Y-92595237D02*
X153811009Y-92690475D01*
X153811009Y-92690475D02*
X153858628Y-92738094D01*
X153858628Y-92738094D02*
X153953866Y-92785713D01*
X153953866Y-92785713D02*
X154144342Y-92785713D01*
X154144342Y-92785713D02*
X154239580Y-92738094D01*
X154239580Y-92738094D02*
X154287200Y-92690475D01*
X154287200Y-92690475D02*
X154334819Y-92595237D01*
X154334819Y-92595237D02*
X154334819Y-92404761D01*
X154334819Y-92404761D02*
X154287200Y-92309523D01*
X154287200Y-92309523D02*
X154239580Y-92261904D01*
X154239580Y-92261904D02*
X154144342Y-92214285D01*
X154144342Y-92214285D02*
X153953866Y-92214285D01*
X153953866Y-92214285D02*
X153858628Y-92261904D01*
X153858628Y-92261904D02*
X153811009Y-92309523D01*
X153811009Y-92309523D02*
X153763390Y-92404761D01*
X154654819Y-97071904D02*
X153654819Y-97071904D01*
X154654819Y-96500476D02*
X154083390Y-96929047D01*
X153654819Y-96500476D02*
X154226247Y-97071904D01*
X210334819Y-90238094D02*
X209334819Y-90238094D01*
X209334819Y-90238094D02*
X209334819Y-89999999D01*
X209334819Y-89999999D02*
X209382438Y-89857142D01*
X209382438Y-89857142D02*
X209477676Y-89761904D01*
X209477676Y-89761904D02*
X209572914Y-89714285D01*
X209572914Y-89714285D02*
X209763390Y-89666666D01*
X209763390Y-89666666D02*
X209906247Y-89666666D01*
X209906247Y-89666666D02*
X210096723Y-89714285D01*
X210096723Y-89714285D02*
X210191961Y-89761904D01*
X210191961Y-89761904D02*
X210287200Y-89857142D01*
X210287200Y-89857142D02*
X210334819Y-89999999D01*
X210334819Y-89999999D02*
X210334819Y-90238094D01*
X210334819Y-89190475D02*
X210334819Y-88999999D01*
X210334819Y-88999999D02*
X210287200Y-88904761D01*
X210287200Y-88904761D02*
X210239580Y-88857142D01*
X210239580Y-88857142D02*
X210096723Y-88761904D01*
X210096723Y-88761904D02*
X209906247Y-88714285D01*
X209906247Y-88714285D02*
X209525295Y-88714285D01*
X209525295Y-88714285D02*
X209430057Y-88761904D01*
X209430057Y-88761904D02*
X209382438Y-88809523D01*
X209382438Y-88809523D02*
X209334819Y-88904761D01*
X209334819Y-88904761D02*
X209334819Y-89095237D01*
X209334819Y-89095237D02*
X209382438Y-89190475D01*
X209382438Y-89190475D02*
X209430057Y-89238094D01*
X209430057Y-89238094D02*
X209525295Y-89285713D01*
X209525295Y-89285713D02*
X209763390Y-89285713D01*
X209763390Y-89285713D02*
X209858628Y-89238094D01*
X209858628Y-89238094D02*
X209906247Y-89190475D01*
X209906247Y-89190475D02*
X209953866Y-89095237D01*
X209953866Y-89095237D02*
X209953866Y-88904761D01*
X209953866Y-88904761D02*
X209906247Y-88809523D01*
X209906247Y-88809523D02*
X209858628Y-88761904D01*
X209858628Y-88761904D02*
X209763390Y-88714285D01*
X210654819Y-93571904D02*
X209654819Y-93571904D01*
X210654819Y-93000476D02*
X210083390Y-93429047D01*
X209654819Y-93000476D02*
X210226247Y-93571904D01*
X200975714Y-125074819D02*
X200975714Y-124074819D01*
X200975714Y-124074819D02*
X201213809Y-124074819D01*
X201213809Y-124074819D02*
X201356666Y-124122438D01*
X201356666Y-124122438D02*
X201451904Y-124217676D01*
X201451904Y-124217676D02*
X201499523Y-124312914D01*
X201499523Y-124312914D02*
X201547142Y-124503390D01*
X201547142Y-124503390D02*
X201547142Y-124646247D01*
X201547142Y-124646247D02*
X201499523Y-124836723D01*
X201499523Y-124836723D02*
X201451904Y-124931961D01*
X201451904Y-124931961D02*
X201356666Y-125027200D01*
X201356666Y-125027200D02*
X201213809Y-125074819D01*
X201213809Y-125074819D02*
X200975714Y-125074819D01*
X202499523Y-125074819D02*
X201928095Y-125074819D01*
X202213809Y-125074819D02*
X202213809Y-124074819D01*
X202213809Y-124074819D02*
X202118571Y-124217676D01*
X202118571Y-124217676D02*
X202023333Y-124312914D01*
X202023333Y-124312914D02*
X201928095Y-124360533D01*
X202832857Y-124074819D02*
X203451904Y-124074819D01*
X203451904Y-124074819D02*
X203118571Y-124455771D01*
X203118571Y-124455771D02*
X203261428Y-124455771D01*
X203261428Y-124455771D02*
X203356666Y-124503390D01*
X203356666Y-124503390D02*
X203404285Y-124551009D01*
X203404285Y-124551009D02*
X203451904Y-124646247D01*
X203451904Y-124646247D02*
X203451904Y-124884342D01*
X203451904Y-124884342D02*
X203404285Y-124979580D01*
X203404285Y-124979580D02*
X203356666Y-125027200D01*
X203356666Y-125027200D02*
X203261428Y-125074819D01*
X203261428Y-125074819D02*
X202975714Y-125074819D01*
X202975714Y-125074819D02*
X202880476Y-125027200D01*
X202880476Y-125027200D02*
X202832857Y-124979580D01*
X205738095Y-124754819D02*
X205738095Y-123754819D01*
X206309523Y-124754819D02*
X205880952Y-124183390D01*
X206309523Y-123754819D02*
X205738095Y-124326247D01*
X167451905Y-62334819D02*
X167451905Y-61334819D01*
X167451905Y-61334819D02*
X167690000Y-61334819D01*
X167690000Y-61334819D02*
X167832857Y-61382438D01*
X167832857Y-61382438D02*
X167928095Y-61477676D01*
X167928095Y-61477676D02*
X167975714Y-61572914D01*
X167975714Y-61572914D02*
X168023333Y-61763390D01*
X168023333Y-61763390D02*
X168023333Y-61906247D01*
X168023333Y-61906247D02*
X167975714Y-62096723D01*
X167975714Y-62096723D02*
X167928095Y-62191961D01*
X167928095Y-62191961D02*
X167832857Y-62287200D01*
X167832857Y-62287200D02*
X167690000Y-62334819D01*
X167690000Y-62334819D02*
X167451905Y-62334819D01*
X168880476Y-61334819D02*
X168690000Y-61334819D01*
X168690000Y-61334819D02*
X168594762Y-61382438D01*
X168594762Y-61382438D02*
X168547143Y-61430057D01*
X168547143Y-61430057D02*
X168451905Y-61572914D01*
X168451905Y-61572914D02*
X168404286Y-61763390D01*
X168404286Y-61763390D02*
X168404286Y-62144342D01*
X168404286Y-62144342D02*
X168451905Y-62239580D01*
X168451905Y-62239580D02*
X168499524Y-62287200D01*
X168499524Y-62287200D02*
X168594762Y-62334819D01*
X168594762Y-62334819D02*
X168785238Y-62334819D01*
X168785238Y-62334819D02*
X168880476Y-62287200D01*
X168880476Y-62287200D02*
X168928095Y-62239580D01*
X168928095Y-62239580D02*
X168975714Y-62144342D01*
X168975714Y-62144342D02*
X168975714Y-61906247D01*
X168975714Y-61906247D02*
X168928095Y-61811009D01*
X168928095Y-61811009D02*
X168880476Y-61763390D01*
X168880476Y-61763390D02*
X168785238Y-61715771D01*
X168785238Y-61715771D02*
X168594762Y-61715771D01*
X168594762Y-61715771D02*
X168499524Y-61763390D01*
X168499524Y-61763390D02*
X168451905Y-61811009D01*
X168451905Y-61811009D02*
X168404286Y-61906247D01*
X164118095Y-62654819D02*
X164118095Y-61654819D01*
X164689523Y-62654819D02*
X164260952Y-62083390D01*
X164689523Y-61654819D02*
X164118095Y-62226247D01*
X183975714Y-125074819D02*
X183975714Y-124074819D01*
X183975714Y-124074819D02*
X184213809Y-124074819D01*
X184213809Y-124074819D02*
X184356666Y-124122438D01*
X184356666Y-124122438D02*
X184451904Y-124217676D01*
X184451904Y-124217676D02*
X184499523Y-124312914D01*
X184499523Y-124312914D02*
X184547142Y-124503390D01*
X184547142Y-124503390D02*
X184547142Y-124646247D01*
X184547142Y-124646247D02*
X184499523Y-124836723D01*
X184499523Y-124836723D02*
X184451904Y-124931961D01*
X184451904Y-124931961D02*
X184356666Y-125027200D01*
X184356666Y-125027200D02*
X184213809Y-125074819D01*
X184213809Y-125074819D02*
X183975714Y-125074819D01*
X185499523Y-125074819D02*
X184928095Y-125074819D01*
X185213809Y-125074819D02*
X185213809Y-124074819D01*
X185213809Y-124074819D02*
X185118571Y-124217676D01*
X185118571Y-124217676D02*
X185023333Y-124312914D01*
X185023333Y-124312914D02*
X184928095Y-124360533D01*
X185880476Y-124170057D02*
X185928095Y-124122438D01*
X185928095Y-124122438D02*
X186023333Y-124074819D01*
X186023333Y-124074819D02*
X186261428Y-124074819D01*
X186261428Y-124074819D02*
X186356666Y-124122438D01*
X186356666Y-124122438D02*
X186404285Y-124170057D01*
X186404285Y-124170057D02*
X186451904Y-124265295D01*
X186451904Y-124265295D02*
X186451904Y-124360533D01*
X186451904Y-124360533D02*
X186404285Y-124503390D01*
X186404285Y-124503390D02*
X185832857Y-125074819D01*
X185832857Y-125074819D02*
X186451904Y-125074819D01*
X188738095Y-124754819D02*
X188738095Y-123754819D01*
X189309523Y-124754819D02*
X188880952Y-124183390D01*
X189309523Y-123754819D02*
X188738095Y-124326247D01*
X182586667Y-70033200D02*
X182729524Y-70080819D01*
X182729524Y-70080819D02*
X182967619Y-70080819D01*
X182967619Y-70080819D02*
X183062857Y-70033200D01*
X183062857Y-70033200D02*
X183110476Y-69985580D01*
X183110476Y-69985580D02*
X183158095Y-69890342D01*
X183158095Y-69890342D02*
X183158095Y-69795104D01*
X183158095Y-69795104D02*
X183110476Y-69699866D01*
X183110476Y-69699866D02*
X183062857Y-69652247D01*
X183062857Y-69652247D02*
X182967619Y-69604628D01*
X182967619Y-69604628D02*
X182777143Y-69557009D01*
X182777143Y-69557009D02*
X182681905Y-69509390D01*
X182681905Y-69509390D02*
X182634286Y-69461771D01*
X182634286Y-69461771D02*
X182586667Y-69366533D01*
X182586667Y-69366533D02*
X182586667Y-69271295D01*
X182586667Y-69271295D02*
X182634286Y-69176057D01*
X182634286Y-69176057D02*
X182681905Y-69128438D01*
X182681905Y-69128438D02*
X182777143Y-69080819D01*
X182777143Y-69080819D02*
X183015238Y-69080819D01*
X183015238Y-69080819D02*
X183158095Y-69128438D01*
X183491429Y-69080819D02*
X183729524Y-70080819D01*
X183729524Y-70080819D02*
X183920000Y-69366533D01*
X183920000Y-69366533D02*
X184110476Y-70080819D01*
X184110476Y-70080819D02*
X184348572Y-69080819D01*
X184681905Y-69176057D02*
X184729524Y-69128438D01*
X184729524Y-69128438D02*
X184824762Y-69080819D01*
X184824762Y-69080819D02*
X185062857Y-69080819D01*
X185062857Y-69080819D02*
X185158095Y-69128438D01*
X185158095Y-69128438D02*
X185205714Y-69176057D01*
X185205714Y-69176057D02*
X185253333Y-69271295D01*
X185253333Y-69271295D02*
X185253333Y-69366533D01*
X185253333Y-69366533D02*
X185205714Y-69509390D01*
X185205714Y-69509390D02*
X184634286Y-70080819D01*
X184634286Y-70080819D02*
X185253333Y-70080819D01*
X182666667Y-104033200D02*
X182809524Y-104080819D01*
X182809524Y-104080819D02*
X183047619Y-104080819D01*
X183047619Y-104080819D02*
X183142857Y-104033200D01*
X183142857Y-104033200D02*
X183190476Y-103985580D01*
X183190476Y-103985580D02*
X183238095Y-103890342D01*
X183238095Y-103890342D02*
X183238095Y-103795104D01*
X183238095Y-103795104D02*
X183190476Y-103699866D01*
X183190476Y-103699866D02*
X183142857Y-103652247D01*
X183142857Y-103652247D02*
X183047619Y-103604628D01*
X183047619Y-103604628D02*
X182857143Y-103557009D01*
X182857143Y-103557009D02*
X182761905Y-103509390D01*
X182761905Y-103509390D02*
X182714286Y-103461771D01*
X182714286Y-103461771D02*
X182666667Y-103366533D01*
X182666667Y-103366533D02*
X182666667Y-103271295D01*
X182666667Y-103271295D02*
X182714286Y-103176057D01*
X182714286Y-103176057D02*
X182761905Y-103128438D01*
X182761905Y-103128438D02*
X182857143Y-103080819D01*
X182857143Y-103080819D02*
X183095238Y-103080819D01*
X183095238Y-103080819D02*
X183238095Y-103128438D01*
X183571429Y-103080819D02*
X183809524Y-104080819D01*
X183809524Y-104080819D02*
X184000000Y-103366533D01*
X184000000Y-103366533D02*
X184190476Y-104080819D01*
X184190476Y-104080819D02*
X184428572Y-103080819D01*
X184857143Y-104080819D02*
X185047619Y-104080819D01*
X185047619Y-104080819D02*
X185142857Y-104033200D01*
X185142857Y-104033200D02*
X185190476Y-103985580D01*
X185190476Y-103985580D02*
X185285714Y-103842723D01*
X185285714Y-103842723D02*
X185333333Y-103652247D01*
X185333333Y-103652247D02*
X185333333Y-103271295D01*
X185333333Y-103271295D02*
X185285714Y-103176057D01*
X185285714Y-103176057D02*
X185238095Y-103128438D01*
X185238095Y-103128438D02*
X185142857Y-103080819D01*
X185142857Y-103080819D02*
X184952381Y-103080819D01*
X184952381Y-103080819D02*
X184857143Y-103128438D01*
X184857143Y-103128438D02*
X184809524Y-103176057D01*
X184809524Y-103176057D02*
X184761905Y-103271295D01*
X184761905Y-103271295D02*
X184761905Y-103509390D01*
X184761905Y-103509390D02*
X184809524Y-103604628D01*
X184809524Y-103604628D02*
X184857143Y-103652247D01*
X184857143Y-103652247D02*
X184952381Y-103699866D01*
X184952381Y-103699866D02*
X185142857Y-103699866D01*
X185142857Y-103699866D02*
X185238095Y-103652247D01*
X185238095Y-103652247D02*
X185285714Y-103604628D01*
X185285714Y-103604628D02*
X185333333Y-103509390D01*
X154969819Y-54286904D02*
X155779342Y-54286904D01*
X155779342Y-54286904D02*
X155874580Y-54239285D01*
X155874580Y-54239285D02*
X155922200Y-54191666D01*
X155922200Y-54191666D02*
X155969819Y-54096428D01*
X155969819Y-54096428D02*
X155969819Y-53905952D01*
X155969819Y-53905952D02*
X155922200Y-53810714D01*
X155922200Y-53810714D02*
X155874580Y-53763095D01*
X155874580Y-53763095D02*
X155779342Y-53715476D01*
X155779342Y-53715476D02*
X154969819Y-53715476D01*
X155065057Y-53286904D02*
X155017438Y-53239285D01*
X155017438Y-53239285D02*
X154969819Y-53144047D01*
X154969819Y-53144047D02*
X154969819Y-52905952D01*
X154969819Y-52905952D02*
X155017438Y-52810714D01*
X155017438Y-52810714D02*
X155065057Y-52763095D01*
X155065057Y-52763095D02*
X155160295Y-52715476D01*
X155160295Y-52715476D02*
X155255533Y-52715476D01*
X155255533Y-52715476D02*
X155398390Y-52763095D01*
X155398390Y-52763095D02*
X155969819Y-53334523D01*
X155969819Y-53334523D02*
X155969819Y-52715476D01*
X168686428Y-53069819D02*
X168876904Y-53069819D01*
X168876904Y-53069819D02*
X168972142Y-53117438D01*
X168972142Y-53117438D02*
X169067380Y-53212676D01*
X169067380Y-53212676D02*
X169114999Y-53403152D01*
X169114999Y-53403152D02*
X169114999Y-53736485D01*
X169114999Y-53736485D02*
X169067380Y-53926961D01*
X169067380Y-53926961D02*
X168972142Y-54022200D01*
X168972142Y-54022200D02*
X168876904Y-54069819D01*
X168876904Y-54069819D02*
X168686428Y-54069819D01*
X168686428Y-54069819D02*
X168591190Y-54022200D01*
X168591190Y-54022200D02*
X168495952Y-53926961D01*
X168495952Y-53926961D02*
X168448333Y-53736485D01*
X168448333Y-53736485D02*
X168448333Y-53403152D01*
X168448333Y-53403152D02*
X168495952Y-53212676D01*
X168495952Y-53212676D02*
X168591190Y-53117438D01*
X168591190Y-53117438D02*
X168686428Y-53069819D01*
X170019761Y-54069819D02*
X169543571Y-54069819D01*
X169543571Y-54069819D02*
X169543571Y-53069819D01*
X170353095Y-53546009D02*
X170686428Y-53546009D01*
X170829285Y-54069819D02*
X170353095Y-54069819D01*
X170353095Y-54069819D02*
X170353095Y-53069819D01*
X170353095Y-53069819D02*
X170829285Y-53069819D01*
X171257857Y-54069819D02*
X171257857Y-53069819D01*
X171257857Y-53069819D02*
X171495952Y-53069819D01*
X171495952Y-53069819D02*
X171638809Y-53117438D01*
X171638809Y-53117438D02*
X171734047Y-53212676D01*
X171734047Y-53212676D02*
X171781666Y-53307914D01*
X171781666Y-53307914D02*
X171829285Y-53498390D01*
X171829285Y-53498390D02*
X171829285Y-53641247D01*
X171829285Y-53641247D02*
X171781666Y-53831723D01*
X171781666Y-53831723D02*
X171734047Y-53926961D01*
X171734047Y-53926961D02*
X171638809Y-54022200D01*
X171638809Y-54022200D02*
X171495952Y-54069819D01*
X171495952Y-54069819D02*
X171257857Y-54069819D01*
X173019762Y-54069819D02*
X173019762Y-53069819D01*
X173019762Y-53069819D02*
X173400714Y-53069819D01*
X173400714Y-53069819D02*
X173495952Y-53117438D01*
X173495952Y-53117438D02*
X173543571Y-53165057D01*
X173543571Y-53165057D02*
X173591190Y-53260295D01*
X173591190Y-53260295D02*
X173591190Y-53403152D01*
X173591190Y-53403152D02*
X173543571Y-53498390D01*
X173543571Y-53498390D02*
X173495952Y-53546009D01*
X173495952Y-53546009D02*
X173400714Y-53593628D01*
X173400714Y-53593628D02*
X173019762Y-53593628D01*
X174448333Y-54069819D02*
X174448333Y-53546009D01*
X174448333Y-53546009D02*
X174400714Y-53450771D01*
X174400714Y-53450771D02*
X174305476Y-53403152D01*
X174305476Y-53403152D02*
X174115000Y-53403152D01*
X174115000Y-53403152D02*
X174019762Y-53450771D01*
X174448333Y-54022200D02*
X174353095Y-54069819D01*
X174353095Y-54069819D02*
X174115000Y-54069819D01*
X174115000Y-54069819D02*
X174019762Y-54022200D01*
X174019762Y-54022200D02*
X173972143Y-53926961D01*
X173972143Y-53926961D02*
X173972143Y-53831723D01*
X173972143Y-53831723D02*
X174019762Y-53736485D01*
X174019762Y-53736485D02*
X174115000Y-53688866D01*
X174115000Y-53688866D02*
X174353095Y-53688866D01*
X174353095Y-53688866D02*
X174448333Y-53641247D01*
X174924524Y-53403152D02*
X174924524Y-54069819D01*
X174924524Y-53498390D02*
X174972143Y-53450771D01*
X174972143Y-53450771D02*
X175067381Y-53403152D01*
X175067381Y-53403152D02*
X175210238Y-53403152D01*
X175210238Y-53403152D02*
X175305476Y-53450771D01*
X175305476Y-53450771D02*
X175353095Y-53546009D01*
X175353095Y-53546009D02*
X175353095Y-54069819D01*
X176210238Y-54022200D02*
X176115000Y-54069819D01*
X176115000Y-54069819D02*
X175924524Y-54069819D01*
X175924524Y-54069819D02*
X175829286Y-54022200D01*
X175829286Y-54022200D02*
X175781667Y-53926961D01*
X175781667Y-53926961D02*
X175781667Y-53546009D01*
X175781667Y-53546009D02*
X175829286Y-53450771D01*
X175829286Y-53450771D02*
X175924524Y-53403152D01*
X175924524Y-53403152D02*
X176115000Y-53403152D01*
X176115000Y-53403152D02*
X176210238Y-53450771D01*
X176210238Y-53450771D02*
X176257857Y-53546009D01*
X176257857Y-53546009D02*
X176257857Y-53641247D01*
X176257857Y-53641247D02*
X175781667Y-53736485D01*
X176829286Y-54069819D02*
X176734048Y-54022200D01*
X176734048Y-54022200D02*
X176686429Y-53926961D01*
X176686429Y-53926961D02*
X176686429Y-53069819D01*
X187739878Y-50376428D02*
X187704164Y-50447857D01*
X187704164Y-50447857D02*
X187704164Y-50554999D01*
X187704164Y-50554999D02*
X187739878Y-50662142D01*
X187739878Y-50662142D02*
X187811307Y-50733571D01*
X187811307Y-50733571D02*
X187882735Y-50769285D01*
X187882735Y-50769285D02*
X188025592Y-50804999D01*
X188025592Y-50804999D02*
X188132735Y-50804999D01*
X188132735Y-50804999D02*
X188275592Y-50769285D01*
X188275592Y-50769285D02*
X188347021Y-50733571D01*
X188347021Y-50733571D02*
X188418450Y-50662142D01*
X188418450Y-50662142D02*
X188454164Y-50554999D01*
X188454164Y-50554999D02*
X188454164Y-50483571D01*
X188454164Y-50483571D02*
X188418450Y-50376428D01*
X188418450Y-50376428D02*
X188382735Y-50340714D01*
X188382735Y-50340714D02*
X188132735Y-50340714D01*
X188132735Y-50340714D02*
X188132735Y-50483571D01*
X188454164Y-50019285D02*
X187704164Y-50019285D01*
X187704164Y-50019285D02*
X188454164Y-49590714D01*
X188454164Y-49590714D02*
X187704164Y-49590714D01*
X188454164Y-49233571D02*
X187704164Y-49233571D01*
X187704164Y-49233571D02*
X187704164Y-49055000D01*
X187704164Y-49055000D02*
X187739878Y-48947857D01*
X187739878Y-48947857D02*
X187811307Y-48876428D01*
X187811307Y-48876428D02*
X187882735Y-48840714D01*
X187882735Y-48840714D02*
X188025592Y-48805000D01*
X188025592Y-48805000D02*
X188132735Y-48805000D01*
X188132735Y-48805000D02*
X188275592Y-48840714D01*
X188275592Y-48840714D02*
X188347021Y-48876428D01*
X188347021Y-48876428D02*
X188418450Y-48947857D01*
X188418450Y-48947857D02*
X188454164Y-49055000D01*
X188454164Y-49055000D02*
X188454164Y-49233571D01*
X187704164Y-53344999D02*
X188454164Y-53094999D01*
X188454164Y-53094999D02*
X187704164Y-52844999D01*
X188382735Y-52166428D02*
X188418450Y-52202142D01*
X188418450Y-52202142D02*
X188454164Y-52309285D01*
X188454164Y-52309285D02*
X188454164Y-52380713D01*
X188454164Y-52380713D02*
X188418450Y-52487856D01*
X188418450Y-52487856D02*
X188347021Y-52559285D01*
X188347021Y-52559285D02*
X188275592Y-52594999D01*
X188275592Y-52594999D02*
X188132735Y-52630713D01*
X188132735Y-52630713D02*
X188025592Y-52630713D01*
X188025592Y-52630713D02*
X187882735Y-52594999D01*
X187882735Y-52594999D02*
X187811307Y-52559285D01*
X187811307Y-52559285D02*
X187739878Y-52487856D01*
X187739878Y-52487856D02*
X187704164Y-52380713D01*
X187704164Y-52380713D02*
X187704164Y-52309285D01*
X187704164Y-52309285D02*
X187739878Y-52202142D01*
X187739878Y-52202142D02*
X187775592Y-52166428D01*
X188382735Y-51416428D02*
X188418450Y-51452142D01*
X188418450Y-51452142D02*
X188454164Y-51559285D01*
X188454164Y-51559285D02*
X188454164Y-51630713D01*
X188454164Y-51630713D02*
X188418450Y-51737856D01*
X188418450Y-51737856D02*
X188347021Y-51809285D01*
X188347021Y-51809285D02*
X188275592Y-51844999D01*
X188275592Y-51844999D02*
X188132735Y-51880713D01*
X188132735Y-51880713D02*
X188025592Y-51880713D01*
X188025592Y-51880713D02*
X187882735Y-51844999D01*
X187882735Y-51844999D02*
X187811307Y-51809285D01*
X187811307Y-51809285D02*
X187739878Y-51737856D01*
X187739878Y-51737856D02*
X187704164Y-51630713D01*
X187704164Y-51630713D02*
X187704164Y-51559285D01*
X187704164Y-51559285D02*
X187739878Y-51452142D01*
X187739878Y-51452142D02*
X187775592Y-51416428D01*
X188418450Y-55777856D02*
X188454164Y-55670714D01*
X188454164Y-55670714D02*
X188454164Y-55492142D01*
X188454164Y-55492142D02*
X188418450Y-55420714D01*
X188418450Y-55420714D02*
X188382735Y-55384999D01*
X188382735Y-55384999D02*
X188311307Y-55349285D01*
X188311307Y-55349285D02*
X188239878Y-55349285D01*
X188239878Y-55349285D02*
X188168450Y-55384999D01*
X188168450Y-55384999D02*
X188132735Y-55420714D01*
X188132735Y-55420714D02*
X188097021Y-55492142D01*
X188097021Y-55492142D02*
X188061307Y-55634999D01*
X188061307Y-55634999D02*
X188025592Y-55706428D01*
X188025592Y-55706428D02*
X187989878Y-55742142D01*
X187989878Y-55742142D02*
X187918450Y-55777856D01*
X187918450Y-55777856D02*
X187847021Y-55777856D01*
X187847021Y-55777856D02*
X187775592Y-55742142D01*
X187775592Y-55742142D02*
X187739878Y-55706428D01*
X187739878Y-55706428D02*
X187704164Y-55634999D01*
X187704164Y-55634999D02*
X187704164Y-55456428D01*
X187704164Y-55456428D02*
X187739878Y-55349285D01*
X188382735Y-54599285D02*
X188418450Y-54634999D01*
X188418450Y-54634999D02*
X188454164Y-54742142D01*
X188454164Y-54742142D02*
X188454164Y-54813570D01*
X188454164Y-54813570D02*
X188418450Y-54920713D01*
X188418450Y-54920713D02*
X188347021Y-54992142D01*
X188347021Y-54992142D02*
X188275592Y-55027856D01*
X188275592Y-55027856D02*
X188132735Y-55063570D01*
X188132735Y-55063570D02*
X188025592Y-55063570D01*
X188025592Y-55063570D02*
X187882735Y-55027856D01*
X187882735Y-55027856D02*
X187811307Y-54992142D01*
X187811307Y-54992142D02*
X187739878Y-54920713D01*
X187739878Y-54920713D02*
X187704164Y-54813570D01*
X187704164Y-54813570D02*
X187704164Y-54742142D01*
X187704164Y-54742142D02*
X187739878Y-54634999D01*
X187739878Y-54634999D02*
X187775592Y-54599285D01*
X188454164Y-53920713D02*
X188454164Y-54277856D01*
X188454164Y-54277856D02*
X187704164Y-54277856D01*
X188418450Y-58335713D02*
X188454164Y-58228571D01*
X188454164Y-58228571D02*
X188454164Y-58049999D01*
X188454164Y-58049999D02*
X188418450Y-57978571D01*
X188418450Y-57978571D02*
X188382735Y-57942856D01*
X188382735Y-57942856D02*
X188311307Y-57907142D01*
X188311307Y-57907142D02*
X188239878Y-57907142D01*
X188239878Y-57907142D02*
X188168450Y-57942856D01*
X188168450Y-57942856D02*
X188132735Y-57978571D01*
X188132735Y-57978571D02*
X188097021Y-58049999D01*
X188097021Y-58049999D02*
X188061307Y-58192856D01*
X188061307Y-58192856D02*
X188025592Y-58264285D01*
X188025592Y-58264285D02*
X187989878Y-58299999D01*
X187989878Y-58299999D02*
X187918450Y-58335713D01*
X187918450Y-58335713D02*
X187847021Y-58335713D01*
X187847021Y-58335713D02*
X187775592Y-58299999D01*
X187775592Y-58299999D02*
X187739878Y-58264285D01*
X187739878Y-58264285D02*
X187704164Y-58192856D01*
X187704164Y-58192856D02*
X187704164Y-58014285D01*
X187704164Y-58014285D02*
X187739878Y-57907142D01*
X188454164Y-57585713D02*
X187704164Y-57585713D01*
X187704164Y-57585713D02*
X187704164Y-57407142D01*
X187704164Y-57407142D02*
X187739878Y-57299999D01*
X187739878Y-57299999D02*
X187811307Y-57228570D01*
X187811307Y-57228570D02*
X187882735Y-57192856D01*
X187882735Y-57192856D02*
X188025592Y-57157142D01*
X188025592Y-57157142D02*
X188132735Y-57157142D01*
X188132735Y-57157142D02*
X188275592Y-57192856D01*
X188275592Y-57192856D02*
X188347021Y-57228570D01*
X188347021Y-57228570D02*
X188418450Y-57299999D01*
X188418450Y-57299999D02*
X188454164Y-57407142D01*
X188454164Y-57407142D02*
X188454164Y-57585713D01*
X188239878Y-56871427D02*
X188239878Y-56514285D01*
X188454164Y-56942856D02*
X187704164Y-56692856D01*
X187704164Y-56692856D02*
X188454164Y-56442856D01*
X165586667Y-70033200D02*
X165729524Y-70080819D01*
X165729524Y-70080819D02*
X165967619Y-70080819D01*
X165967619Y-70080819D02*
X166062857Y-70033200D01*
X166062857Y-70033200D02*
X166110476Y-69985580D01*
X166110476Y-69985580D02*
X166158095Y-69890342D01*
X166158095Y-69890342D02*
X166158095Y-69795104D01*
X166158095Y-69795104D02*
X166110476Y-69699866D01*
X166110476Y-69699866D02*
X166062857Y-69652247D01*
X166062857Y-69652247D02*
X165967619Y-69604628D01*
X165967619Y-69604628D02*
X165777143Y-69557009D01*
X165777143Y-69557009D02*
X165681905Y-69509390D01*
X165681905Y-69509390D02*
X165634286Y-69461771D01*
X165634286Y-69461771D02*
X165586667Y-69366533D01*
X165586667Y-69366533D02*
X165586667Y-69271295D01*
X165586667Y-69271295D02*
X165634286Y-69176057D01*
X165634286Y-69176057D02*
X165681905Y-69128438D01*
X165681905Y-69128438D02*
X165777143Y-69080819D01*
X165777143Y-69080819D02*
X166015238Y-69080819D01*
X166015238Y-69080819D02*
X166158095Y-69128438D01*
X166491429Y-69080819D02*
X166729524Y-70080819D01*
X166729524Y-70080819D02*
X166920000Y-69366533D01*
X166920000Y-69366533D02*
X167110476Y-70080819D01*
X167110476Y-70080819D02*
X167348572Y-69080819D01*
X168253333Y-70080819D02*
X167681905Y-70080819D01*
X167967619Y-70080819D02*
X167967619Y-69080819D01*
X167967619Y-69080819D02*
X167872381Y-69223676D01*
X167872381Y-69223676D02*
X167777143Y-69318914D01*
X167777143Y-69318914D02*
X167681905Y-69366533D01*
D11*
X203447666Y-58436985D02*
X203447666Y-59156652D01*
X203447666Y-59156652D02*
X203490000Y-59241318D01*
X203490000Y-59241318D02*
X203532333Y-59283652D01*
X203532333Y-59283652D02*
X203617000Y-59325985D01*
X203617000Y-59325985D02*
X203786333Y-59325985D01*
X203786333Y-59325985D02*
X203871000Y-59283652D01*
X203871000Y-59283652D02*
X203913333Y-59241318D01*
X203913333Y-59241318D02*
X203955666Y-59156652D01*
X203955666Y-59156652D02*
X203955666Y-58436985D01*
X204844666Y-59325985D02*
X204336666Y-59325985D01*
X204590666Y-59325985D02*
X204590666Y-58436985D01*
X204590666Y-58436985D02*
X204505999Y-58563985D01*
X204505999Y-58563985D02*
X204421333Y-58648652D01*
X204421333Y-58648652D02*
X204336666Y-58690985D01*
D10*
X199363095Y-55287200D02*
X199505952Y-55334819D01*
X199505952Y-55334819D02*
X199744047Y-55334819D01*
X199744047Y-55334819D02*
X199839285Y-55287200D01*
X199839285Y-55287200D02*
X199886904Y-55239580D01*
X199886904Y-55239580D02*
X199934523Y-55144342D01*
X199934523Y-55144342D02*
X199934523Y-55049104D01*
X199934523Y-55049104D02*
X199886904Y-54953866D01*
X199886904Y-54953866D02*
X199839285Y-54906247D01*
X199839285Y-54906247D02*
X199744047Y-54858628D01*
X199744047Y-54858628D02*
X199553571Y-54811009D01*
X199553571Y-54811009D02*
X199458333Y-54763390D01*
X199458333Y-54763390D02*
X199410714Y-54715771D01*
X199410714Y-54715771D02*
X199363095Y-54620533D01*
X199363095Y-54620533D02*
X199363095Y-54525295D01*
X199363095Y-54525295D02*
X199410714Y-54430057D01*
X199410714Y-54430057D02*
X199458333Y-54382438D01*
X199458333Y-54382438D02*
X199553571Y-54334819D01*
X199553571Y-54334819D02*
X199791666Y-54334819D01*
X199791666Y-54334819D02*
X199934523Y-54382438D01*
X200744047Y-55287200D02*
X200648809Y-55334819D01*
X200648809Y-55334819D02*
X200458333Y-55334819D01*
X200458333Y-55334819D02*
X200363095Y-55287200D01*
X200363095Y-55287200D02*
X200315476Y-55191961D01*
X200315476Y-55191961D02*
X200315476Y-54811009D01*
X200315476Y-54811009D02*
X200363095Y-54715771D01*
X200363095Y-54715771D02*
X200458333Y-54668152D01*
X200458333Y-54668152D02*
X200648809Y-54668152D01*
X200648809Y-54668152D02*
X200744047Y-54715771D01*
X200744047Y-54715771D02*
X200791666Y-54811009D01*
X200791666Y-54811009D02*
X200791666Y-54906247D01*
X200791666Y-54906247D02*
X200315476Y-55001485D01*
X201601190Y-55287200D02*
X201505952Y-55334819D01*
X201505952Y-55334819D02*
X201315476Y-55334819D01*
X201315476Y-55334819D02*
X201220238Y-55287200D01*
X201220238Y-55287200D02*
X201172619Y-55191961D01*
X201172619Y-55191961D02*
X201172619Y-54811009D01*
X201172619Y-54811009D02*
X201220238Y-54715771D01*
X201220238Y-54715771D02*
X201315476Y-54668152D01*
X201315476Y-54668152D02*
X201505952Y-54668152D01*
X201505952Y-54668152D02*
X201601190Y-54715771D01*
X201601190Y-54715771D02*
X201648809Y-54811009D01*
X201648809Y-54811009D02*
X201648809Y-54906247D01*
X201648809Y-54906247D02*
X201172619Y-55001485D01*
X202458333Y-55287200D02*
X202363095Y-55334819D01*
X202363095Y-55334819D02*
X202172619Y-55334819D01*
X202172619Y-55334819D02*
X202077381Y-55287200D01*
X202077381Y-55287200D02*
X202029762Y-55191961D01*
X202029762Y-55191961D02*
X202029762Y-54811009D01*
X202029762Y-54811009D02*
X202077381Y-54715771D01*
X202077381Y-54715771D02*
X202172619Y-54668152D01*
X202172619Y-54668152D02*
X202363095Y-54668152D01*
X202363095Y-54668152D02*
X202458333Y-54715771D01*
X202458333Y-54715771D02*
X202505952Y-54811009D01*
X202505952Y-54811009D02*
X202505952Y-54906247D01*
X202505952Y-54906247D02*
X202029762Y-55001485D01*
X203363095Y-55334819D02*
X203363095Y-54334819D01*
X203363095Y-55287200D02*
X203267857Y-55334819D01*
X203267857Y-55334819D02*
X203077381Y-55334819D01*
X203077381Y-55334819D02*
X202982143Y-55287200D01*
X202982143Y-55287200D02*
X202934524Y-55239580D01*
X202934524Y-55239580D02*
X202886905Y-55144342D01*
X202886905Y-55144342D02*
X202886905Y-54858628D01*
X202886905Y-54858628D02*
X202934524Y-54763390D01*
X202934524Y-54763390D02*
X202982143Y-54715771D01*
X202982143Y-54715771D02*
X203077381Y-54668152D01*
X203077381Y-54668152D02*
X203267857Y-54668152D01*
X203267857Y-54668152D02*
X203363095Y-54715771D01*
X204553572Y-55287200D02*
X204696429Y-55334819D01*
X204696429Y-55334819D02*
X204934524Y-55334819D01*
X204934524Y-55334819D02*
X205029762Y-55287200D01*
X205029762Y-55287200D02*
X205077381Y-55239580D01*
X205077381Y-55239580D02*
X205125000Y-55144342D01*
X205125000Y-55144342D02*
X205125000Y-55049104D01*
X205125000Y-55049104D02*
X205077381Y-54953866D01*
X205077381Y-54953866D02*
X205029762Y-54906247D01*
X205029762Y-54906247D02*
X204934524Y-54858628D01*
X204934524Y-54858628D02*
X204744048Y-54811009D01*
X204744048Y-54811009D02*
X204648810Y-54763390D01*
X204648810Y-54763390D02*
X204601191Y-54715771D01*
X204601191Y-54715771D02*
X204553572Y-54620533D01*
X204553572Y-54620533D02*
X204553572Y-54525295D01*
X204553572Y-54525295D02*
X204601191Y-54430057D01*
X204601191Y-54430057D02*
X204648810Y-54382438D01*
X204648810Y-54382438D02*
X204744048Y-54334819D01*
X204744048Y-54334819D02*
X204982143Y-54334819D01*
X204982143Y-54334819D02*
X205125000Y-54382438D01*
X205410715Y-54668152D02*
X205791667Y-54668152D01*
X205553572Y-54334819D02*
X205553572Y-55191961D01*
X205553572Y-55191961D02*
X205601191Y-55287200D01*
X205601191Y-55287200D02*
X205696429Y-55334819D01*
X205696429Y-55334819D02*
X205791667Y-55334819D01*
X206553572Y-54668152D02*
X206553572Y-55334819D01*
X206125001Y-54668152D02*
X206125001Y-55191961D01*
X206125001Y-55191961D02*
X206172620Y-55287200D01*
X206172620Y-55287200D02*
X206267858Y-55334819D01*
X206267858Y-55334819D02*
X206410715Y-55334819D01*
X206410715Y-55334819D02*
X206505953Y-55287200D01*
X206505953Y-55287200D02*
X206553572Y-55239580D01*
X207458334Y-55334819D02*
X207458334Y-54334819D01*
X207458334Y-55287200D02*
X207363096Y-55334819D01*
X207363096Y-55334819D02*
X207172620Y-55334819D01*
X207172620Y-55334819D02*
X207077382Y-55287200D01*
X207077382Y-55287200D02*
X207029763Y-55239580D01*
X207029763Y-55239580D02*
X206982144Y-55144342D01*
X206982144Y-55144342D02*
X206982144Y-54858628D01*
X206982144Y-54858628D02*
X207029763Y-54763390D01*
X207029763Y-54763390D02*
X207077382Y-54715771D01*
X207077382Y-54715771D02*
X207172620Y-54668152D01*
X207172620Y-54668152D02*
X207363096Y-54668152D01*
X207363096Y-54668152D02*
X207458334Y-54715771D01*
X207934525Y-55334819D02*
X207934525Y-54668152D01*
X207934525Y-54334819D02*
X207886906Y-54382438D01*
X207886906Y-54382438D02*
X207934525Y-54430057D01*
X207934525Y-54430057D02*
X207982144Y-54382438D01*
X207982144Y-54382438D02*
X207934525Y-54334819D01*
X207934525Y-54334819D02*
X207934525Y-54430057D01*
X208553572Y-55334819D02*
X208458334Y-55287200D01*
X208458334Y-55287200D02*
X208410715Y-55239580D01*
X208410715Y-55239580D02*
X208363096Y-55144342D01*
X208363096Y-55144342D02*
X208363096Y-54858628D01*
X208363096Y-54858628D02*
X208410715Y-54763390D01*
X208410715Y-54763390D02*
X208458334Y-54715771D01*
X208458334Y-54715771D02*
X208553572Y-54668152D01*
X208553572Y-54668152D02*
X208696429Y-54668152D01*
X208696429Y-54668152D02*
X208791667Y-54715771D01*
X208791667Y-54715771D02*
X208839286Y-54763390D01*
X208839286Y-54763390D02*
X208886905Y-54858628D01*
X208886905Y-54858628D02*
X208886905Y-55144342D01*
X208886905Y-55144342D02*
X208839286Y-55239580D01*
X208839286Y-55239580D02*
X208791667Y-55287200D01*
X208791667Y-55287200D02*
X208696429Y-55334819D01*
X208696429Y-55334819D02*
X208553572Y-55334819D01*
X202601191Y-56334819D02*
X203267857Y-57334819D01*
X203267857Y-56334819D02*
X202601191Y-57334819D01*
X203648810Y-57334819D02*
X203648810Y-56334819D01*
X204077381Y-57049104D02*
X204553571Y-57049104D01*
X203982143Y-57334819D02*
X204315476Y-56334819D01*
X204315476Y-56334819D02*
X204648809Y-57334819D01*
X205172619Y-56334819D02*
X205363095Y-56334819D01*
X205363095Y-56334819D02*
X205458333Y-56382438D01*
X205458333Y-56382438D02*
X205553571Y-56477676D01*
X205553571Y-56477676D02*
X205601190Y-56668152D01*
X205601190Y-56668152D02*
X205601190Y-57001485D01*
X205601190Y-57001485D02*
X205553571Y-57191961D01*
X205553571Y-57191961D02*
X205458333Y-57287200D01*
X205458333Y-57287200D02*
X205363095Y-57334819D01*
X205363095Y-57334819D02*
X205172619Y-57334819D01*
X205172619Y-57334819D02*
X205077381Y-57287200D01*
X205077381Y-57287200D02*
X204982143Y-57191961D01*
X204982143Y-57191961D02*
X204934524Y-57001485D01*
X204934524Y-57001485D02*
X204934524Y-56668152D01*
X204934524Y-56668152D02*
X204982143Y-56477676D01*
X204982143Y-56477676D02*
X205077381Y-56382438D01*
X205077381Y-56382438D02*
X205172619Y-56334819D01*
X199746667Y-70033200D02*
X199889524Y-70080819D01*
X199889524Y-70080819D02*
X200127619Y-70080819D01*
X200127619Y-70080819D02*
X200222857Y-70033200D01*
X200222857Y-70033200D02*
X200270476Y-69985580D01*
X200270476Y-69985580D02*
X200318095Y-69890342D01*
X200318095Y-69890342D02*
X200318095Y-69795104D01*
X200318095Y-69795104D02*
X200270476Y-69699866D01*
X200270476Y-69699866D02*
X200222857Y-69652247D01*
X200222857Y-69652247D02*
X200127619Y-69604628D01*
X200127619Y-69604628D02*
X199937143Y-69557009D01*
X199937143Y-69557009D02*
X199841905Y-69509390D01*
X199841905Y-69509390D02*
X199794286Y-69461771D01*
X199794286Y-69461771D02*
X199746667Y-69366533D01*
X199746667Y-69366533D02*
X199746667Y-69271295D01*
X199746667Y-69271295D02*
X199794286Y-69176057D01*
X199794286Y-69176057D02*
X199841905Y-69128438D01*
X199841905Y-69128438D02*
X199937143Y-69080819D01*
X199937143Y-69080819D02*
X200175238Y-69080819D01*
X200175238Y-69080819D02*
X200318095Y-69128438D01*
X200651429Y-69080819D02*
X200889524Y-70080819D01*
X200889524Y-70080819D02*
X201080000Y-69366533D01*
X201080000Y-69366533D02*
X201270476Y-70080819D01*
X201270476Y-70080819D02*
X201508572Y-69080819D01*
X201794286Y-69080819D02*
X202413333Y-69080819D01*
X202413333Y-69080819D02*
X202080000Y-69461771D01*
X202080000Y-69461771D02*
X202222857Y-69461771D01*
X202222857Y-69461771D02*
X202318095Y-69509390D01*
X202318095Y-69509390D02*
X202365714Y-69557009D01*
X202365714Y-69557009D02*
X202413333Y-69652247D01*
X202413333Y-69652247D02*
X202413333Y-69890342D01*
X202413333Y-69890342D02*
X202365714Y-69985580D01*
X202365714Y-69985580D02*
X202318095Y-70033200D01*
X202318095Y-70033200D02*
X202222857Y-70080819D01*
X202222857Y-70080819D02*
X201937143Y-70080819D01*
X201937143Y-70080819D02*
X201841905Y-70033200D01*
X201841905Y-70033200D02*
X201794286Y-69985580D01*
X199746667Y-87033200D02*
X199889524Y-87080819D01*
X199889524Y-87080819D02*
X200127619Y-87080819D01*
X200127619Y-87080819D02*
X200222857Y-87033200D01*
X200222857Y-87033200D02*
X200270476Y-86985580D01*
X200270476Y-86985580D02*
X200318095Y-86890342D01*
X200318095Y-86890342D02*
X200318095Y-86795104D01*
X200318095Y-86795104D02*
X200270476Y-86699866D01*
X200270476Y-86699866D02*
X200222857Y-86652247D01*
X200222857Y-86652247D02*
X200127619Y-86604628D01*
X200127619Y-86604628D02*
X199937143Y-86557009D01*
X199937143Y-86557009D02*
X199841905Y-86509390D01*
X199841905Y-86509390D02*
X199794286Y-86461771D01*
X199794286Y-86461771D02*
X199746667Y-86366533D01*
X199746667Y-86366533D02*
X199746667Y-86271295D01*
X199746667Y-86271295D02*
X199794286Y-86176057D01*
X199794286Y-86176057D02*
X199841905Y-86128438D01*
X199841905Y-86128438D02*
X199937143Y-86080819D01*
X199937143Y-86080819D02*
X200175238Y-86080819D01*
X200175238Y-86080819D02*
X200318095Y-86128438D01*
X200651429Y-86080819D02*
X200889524Y-87080819D01*
X200889524Y-87080819D02*
X201080000Y-86366533D01*
X201080000Y-86366533D02*
X201270476Y-87080819D01*
X201270476Y-87080819D02*
X201508572Y-86080819D01*
X202318095Y-86080819D02*
X202127619Y-86080819D01*
X202127619Y-86080819D02*
X202032381Y-86128438D01*
X202032381Y-86128438D02*
X201984762Y-86176057D01*
X201984762Y-86176057D02*
X201889524Y-86318914D01*
X201889524Y-86318914D02*
X201841905Y-86509390D01*
X201841905Y-86509390D02*
X201841905Y-86890342D01*
X201841905Y-86890342D02*
X201889524Y-86985580D01*
X201889524Y-86985580D02*
X201937143Y-87033200D01*
X201937143Y-87033200D02*
X202032381Y-87080819D01*
X202032381Y-87080819D02*
X202222857Y-87080819D01*
X202222857Y-87080819D02*
X202318095Y-87033200D01*
X202318095Y-87033200D02*
X202365714Y-86985580D01*
X202365714Y-86985580D02*
X202413333Y-86890342D01*
X202413333Y-86890342D02*
X202413333Y-86652247D01*
X202413333Y-86652247D02*
X202365714Y-86557009D01*
X202365714Y-86557009D02*
X202318095Y-86509390D01*
X202318095Y-86509390D02*
X202222857Y-86461771D01*
X202222857Y-86461771D02*
X202032381Y-86461771D01*
X202032381Y-86461771D02*
X201937143Y-86509390D01*
X201937143Y-86509390D02*
X201889524Y-86557009D01*
X201889524Y-86557009D02*
X201841905Y-86652247D01*
X156951905Y-62334819D02*
X156951905Y-61334819D01*
X156951905Y-61334819D02*
X157190000Y-61334819D01*
X157190000Y-61334819D02*
X157332857Y-61382438D01*
X157332857Y-61382438D02*
X157428095Y-61477676D01*
X157428095Y-61477676D02*
X157475714Y-61572914D01*
X157475714Y-61572914D02*
X157523333Y-61763390D01*
X157523333Y-61763390D02*
X157523333Y-61906247D01*
X157523333Y-61906247D02*
X157475714Y-62096723D01*
X157475714Y-62096723D02*
X157428095Y-62191961D01*
X157428095Y-62191961D02*
X157332857Y-62287200D01*
X157332857Y-62287200D02*
X157190000Y-62334819D01*
X157190000Y-62334819D02*
X156951905Y-62334819D01*
X158428095Y-61334819D02*
X157951905Y-61334819D01*
X157951905Y-61334819D02*
X157904286Y-61811009D01*
X157904286Y-61811009D02*
X157951905Y-61763390D01*
X157951905Y-61763390D02*
X158047143Y-61715771D01*
X158047143Y-61715771D02*
X158285238Y-61715771D01*
X158285238Y-61715771D02*
X158380476Y-61763390D01*
X158380476Y-61763390D02*
X158428095Y-61811009D01*
X158428095Y-61811009D02*
X158475714Y-61906247D01*
X158475714Y-61906247D02*
X158475714Y-62144342D01*
X158475714Y-62144342D02*
X158428095Y-62239580D01*
X158428095Y-62239580D02*
X158380476Y-62287200D01*
X158380476Y-62287200D02*
X158285238Y-62334819D01*
X158285238Y-62334819D02*
X158047143Y-62334819D01*
X158047143Y-62334819D02*
X157951905Y-62287200D01*
X157951905Y-62287200D02*
X157904286Y-62239580D01*
X153618095Y-62654819D02*
X153618095Y-61654819D01*
X154189523Y-62654819D02*
X153760952Y-62083390D01*
X154189523Y-61654819D02*
X153618095Y-62226247D01*
X177951905Y-62334819D02*
X177951905Y-61334819D01*
X177951905Y-61334819D02*
X178190000Y-61334819D01*
X178190000Y-61334819D02*
X178332857Y-61382438D01*
X178332857Y-61382438D02*
X178428095Y-61477676D01*
X178428095Y-61477676D02*
X178475714Y-61572914D01*
X178475714Y-61572914D02*
X178523333Y-61763390D01*
X178523333Y-61763390D02*
X178523333Y-61906247D01*
X178523333Y-61906247D02*
X178475714Y-62096723D01*
X178475714Y-62096723D02*
X178428095Y-62191961D01*
X178428095Y-62191961D02*
X178332857Y-62287200D01*
X178332857Y-62287200D02*
X178190000Y-62334819D01*
X178190000Y-62334819D02*
X177951905Y-62334819D01*
X178856667Y-61334819D02*
X179523333Y-61334819D01*
X179523333Y-61334819D02*
X179094762Y-62334819D01*
X174618095Y-62654819D02*
X174618095Y-61654819D01*
X175189523Y-62654819D02*
X174760952Y-62083390D01*
X175189523Y-61654819D02*
X174618095Y-62226247D01*
%TO.C,D10*%
D12*
X210880000Y-101970000D02*
X213120000Y-101970000D01*
X210880000Y-102090000D02*
X213120000Y-102090000D01*
X210880000Y-102210000D02*
X213120000Y-102210000D01*
X212000000Y-97920000D02*
X212000000Y-98570000D01*
X212000000Y-103460000D02*
X212000000Y-102810000D01*
X210880000Y-98570000D02*
X213120000Y-98570000D01*
X213120000Y-102810000D01*
X210880000Y-102810000D01*
X210880000Y-98570000D01*
%TO.C,D11*%
X164420000Y-122500000D02*
X165070000Y-122500000D01*
X168470000Y-123620000D02*
X168470000Y-121380000D01*
X168590000Y-123620000D02*
X168590000Y-121380000D01*
X168710000Y-123620000D02*
X168710000Y-121380000D01*
X169960000Y-122500000D02*
X169310000Y-122500000D01*
X165070000Y-121380000D02*
X169310000Y-121380000D01*
X169310000Y-123620000D01*
X165070000Y-123620000D01*
X165070000Y-121380000D01*
%TO.C,SW7*%
X160015000Y-104515000D02*
X173985000Y-104515000D01*
X160015000Y-118485000D02*
X160015000Y-104515000D01*
X173985000Y-104515000D02*
X173985000Y-118485000D01*
X173985000Y-118485000D02*
X160015000Y-118485000D01*
%TO.C,SW10*%
X194095000Y-104515000D02*
X208065000Y-104515000D01*
X194095000Y-118485000D02*
X194095000Y-104515000D01*
X208065000Y-104515000D02*
X208065000Y-118485000D01*
X208065000Y-118485000D02*
X194095000Y-118485000D01*
%TO.C,SW4*%
X159935000Y-87515000D02*
X173905000Y-87515000D01*
X159935000Y-101485000D02*
X159935000Y-87515000D01*
X173905000Y-87515000D02*
X173905000Y-101485000D01*
X173905000Y-101485000D02*
X159935000Y-101485000D01*
%TO.C,SW5*%
X176935000Y-87515000D02*
X190905000Y-87515000D01*
X176935000Y-101485000D02*
X176935000Y-87515000D01*
X190905000Y-87515000D02*
X190905000Y-101485000D01*
X190905000Y-101485000D02*
X176935000Y-101485000D01*
%TO.C,D8*%
X154880000Y-94280000D02*
X157120000Y-94280000D01*
X154880000Y-94400000D02*
X157120000Y-94400000D01*
X154880000Y-94520000D02*
X157120000Y-94520000D01*
X156000000Y-90230000D02*
X156000000Y-90880000D01*
X156000000Y-95770000D02*
X156000000Y-95120000D01*
X154880000Y-90880000D02*
X157120000Y-90880000D01*
X157120000Y-95120000D01*
X154880000Y-95120000D01*
X154880000Y-90880000D01*
%TO.C,D9*%
X210880000Y-90780000D02*
X213120000Y-90780000D01*
X210880000Y-90900000D02*
X213120000Y-90900000D01*
X210880000Y-91020000D02*
X213120000Y-91020000D01*
X212000000Y-86730000D02*
X212000000Y-87380000D01*
X212000000Y-92270000D02*
X212000000Y-91620000D01*
X210880000Y-87380000D02*
X213120000Y-87380000D01*
X213120000Y-91620000D01*
X210880000Y-91620000D01*
X210880000Y-87380000D01*
%TO.C,D13*%
X199420000Y-122500000D02*
X200070000Y-122500000D01*
X203470000Y-123620000D02*
X203470000Y-121380000D01*
X203590000Y-123620000D02*
X203590000Y-121380000D01*
X203710000Y-123620000D02*
X203710000Y-121380000D01*
X204960000Y-122500000D02*
X204310000Y-122500000D01*
X200070000Y-121380000D02*
X204310000Y-121380000D01*
X204310000Y-123620000D01*
X200070000Y-123620000D01*
X200070000Y-121380000D01*
%TO.C,D6*%
X165420000Y-64000000D02*
X166070000Y-64000000D01*
X166670000Y-62880000D02*
X166670000Y-65120000D01*
X166790000Y-62880000D02*
X166790000Y-65120000D01*
X166910000Y-62880000D02*
X166910000Y-65120000D01*
X170960000Y-64000000D02*
X170310000Y-64000000D01*
X166070000Y-62880000D02*
X170310000Y-62880000D01*
X170310000Y-65120000D01*
X166070000Y-65120000D01*
X166070000Y-62880000D01*
%TO.C,D12*%
X182420000Y-122500000D02*
X183070000Y-122500000D01*
X186470000Y-123620000D02*
X186470000Y-121380000D01*
X186590000Y-123620000D02*
X186590000Y-121380000D01*
X186710000Y-123620000D02*
X186710000Y-121380000D01*
X187960000Y-122500000D02*
X187310000Y-122500000D01*
X183070000Y-121380000D02*
X187310000Y-121380000D01*
X187310000Y-123620000D01*
X183070000Y-123620000D01*
X183070000Y-121380000D01*
%TO.C,SW2*%
X176935000Y-70515000D02*
X190905000Y-70515000D01*
X176935000Y-84485000D02*
X176935000Y-70515000D01*
X190905000Y-70515000D02*
X190905000Y-84485000D01*
X190905000Y-84485000D02*
X176935000Y-84485000D01*
%TO.C,SW9*%
X177015000Y-104515000D02*
X190985000Y-104515000D01*
X177015000Y-118485000D02*
X177015000Y-104515000D01*
X190985000Y-104515000D02*
X190985000Y-118485000D01*
X190985000Y-118485000D02*
X177015000Y-118485000D01*
%TO.C,U2*%
D13*
X153615000Y-47615000D02*
X153615000Y-59615000D01*
X153615000Y-59615000D02*
X191615000Y-59615000D01*
X157115000Y-47615000D02*
X157115000Y-59615000D01*
X186615000Y-47615000D02*
X186615000Y-59615000D01*
X191615000Y-47615000D02*
X153615000Y-47615000D01*
X191615000Y-59615000D02*
X191615000Y-47615000D01*
%TO.C,SW1*%
D12*
X159935000Y-70515000D02*
X173905000Y-70515000D01*
X159935000Y-84485000D02*
X159935000Y-70515000D01*
X173905000Y-70515000D02*
X173905000Y-84485000D01*
X173905000Y-84485000D02*
X159935000Y-84485000D01*
%TO.C,U1*%
D14*
X195225000Y-47880000D02*
X195225000Y-64880000D01*
X197225000Y-66880000D02*
X211025000Y-66880000D01*
X199625000Y-44455970D02*
X208625000Y-44455970D01*
X199625000Y-51809270D02*
X199625000Y-44455970D01*
X208625000Y-44455970D02*
X208625000Y-51809270D01*
X208625000Y-51809270D02*
X199625000Y-51809270D01*
X211025000Y-45880910D02*
X197225000Y-45880910D01*
X213025000Y-64880000D02*
X213025000Y-47880000D01*
D12*
X195225000Y-47880000D02*
G75*
G02*
X197225000Y-45880000I2044612J-44612D01*
G01*
X197225000Y-66880000D02*
G75*
G02*
X195225000Y-64880000I44857J2044857D01*
G01*
X211025000Y-45880000D02*
G75*
G02*
X213025000Y-47880000I-44610J-2044610D01*
G01*
X213025000Y-64880000D02*
G75*
G02*
X211025000Y-66880000I-2000000J0D01*
G01*
D15*
X193252000Y-47580000D02*
G75*
G02*
X192998000Y-47580000I-127000J0D01*
G01*
X192998000Y-47580000D02*
G75*
G02*
X193252000Y-47580000I127000J0D01*
G01*
D16*
X195237285Y-47818295D02*
X195240333Y-47769527D01*
X195244397Y-47720506D01*
X195237285Y-47818295D01*
X213014492Y-64901574D02*
X213012713Y-64950850D01*
X213009665Y-64999618D01*
X213005601Y-65048639D01*
X213000268Y-65097407D01*
X212993664Y-65146175D01*
X212986044Y-65194690D01*
X212977153Y-65242950D01*
X212967248Y-65290955D01*
X213014492Y-64901574D01*
%TO.C,SW3*%
D12*
X194095000Y-70515000D02*
X208065000Y-70515000D01*
X194095000Y-84485000D02*
X194095000Y-70515000D01*
X208065000Y-70515000D02*
X208065000Y-84485000D01*
X208065000Y-84485000D02*
X194095000Y-84485000D01*
%TO.C,SW6*%
X194095000Y-87515000D02*
X208065000Y-87515000D01*
X194095000Y-101485000D02*
X194095000Y-87515000D01*
X208065000Y-87515000D02*
X208065000Y-101485000D01*
X208065000Y-101485000D02*
X194095000Y-101485000D01*
%TO.C,D5*%
X154920000Y-64000000D02*
X155570000Y-64000000D01*
X156170000Y-62880000D02*
X156170000Y-65120000D01*
X156290000Y-62880000D02*
X156290000Y-65120000D01*
X156410000Y-62880000D02*
X156410000Y-65120000D01*
X160460000Y-64000000D02*
X159810000Y-64000000D01*
X155570000Y-62880000D02*
X159810000Y-62880000D01*
X159810000Y-65120000D01*
X155570000Y-65120000D01*
X155570000Y-62880000D01*
%TO.C,D7*%
X175920000Y-64000000D02*
X176570000Y-64000000D01*
X177170000Y-62880000D02*
X177170000Y-65120000D01*
X177290000Y-62880000D02*
X177290000Y-65120000D01*
X177410000Y-62880000D02*
X177410000Y-65120000D01*
X181460000Y-64000000D02*
X180810000Y-64000000D01*
X176570000Y-62880000D02*
X180810000Y-62880000D01*
X180810000Y-65120000D01*
X176570000Y-65120000D01*
X176570000Y-62880000D01*
%TD*%
M02*
