M48
; DRILL file KiCad 10.0.5 date 2026-09-11T17:53:00
; FORMAT={-:-/ absolute / metric / decimal}
; #@! TF.CreationDate,2026-09-11T17:53:00-07:00
; #@! TF.GenerationSoftware,Kicad,Pcbnew,10.0.5
; #@! TF.FileFunction,NonPlated,1,2,NPTH
FMAT,2
METRIC
; #@! TA.AperFunction,NonPlated,NPTH,ComponentDrill
T1C1.700
; #@! TA.AperFunction,NonPlated,NPTH,ComponentDrill
T2C4.000
%
G90
G05
T1
X161.84Y-77.5
X161.84Y-94.5
X161.92Y-111.5
X172.0Y-77.5
X172.0Y-94.5
X172.08Y-111.5
X178.84Y-77.5
X178.84Y-94.5
X178.92Y-111.5
X189.0Y-77.5
X189.0Y-94.5
X189.08Y-111.5
X196.0Y-77.5
X196.0Y-94.5
X196.0Y-111.5
X206.16Y-77.5
X206.16Y-94.5
X206.16Y-111.5
T2
X166.92Y-77.5
X166.92Y-94.5
X167.0Y-111.5
X183.92Y-77.5
X183.92Y-94.5
X184.0Y-111.5
X201.08Y-77.5
X201.08Y-94.5
X201.08Y-111.5
M30
