%TF.GenerationSoftware,KiCad,Pcbnew,10.0.5*%
%TF.CreationDate,2026-09-11T17:52:54-07:00*%
%TF.ProjectId,hackpad,6861636b-7061-4642-9e6b-696361645f70,rev?*%
%TF.SameCoordinates,Original*%
%TF.FileFunction,Profile,NP*%
%FSLAX46Y46*%
G04 Gerber Fmt 4.6, Leading zero omitted, Abs format (unit mm)*
G04 Created by KiCad (PCBNEW 10.0.5) date 2026-09-11 17:52:54*
%MOMM*%
%LPD*%
G01*
G04 APERTURE LIST*
%TA.AperFunction,Profile*%
%ADD10C,0.050000*%
%TD*%
%TA.AperFunction,Profile*%
%ADD11C,0.120000*%
%TD*%
G04 APERTURE END LIST*
D10*
X150500000Y-47000000D02*
G75*
G02*
X153000000Y-44500000I2500000J0D01*
G01*
X150500000Y-123000000D02*
X150500000Y-47000000D01*
X153000000Y-44500000D02*
X214500000Y-44383851D01*
X153000000Y-125500000D02*
G75*
G02*
X150500000Y-123000000I0J2500000D01*
G01*
X214491008Y-125383868D02*
X153000000Y-125500000D01*
X214500000Y-44383851D02*
G75*
G02*
X216999949Y-46883851I0J-2499949D01*
G01*
X217000000Y-122883851D02*
G75*
G02*
X214500000Y-125383800I-2499900J-49D01*
G01*
X217000000Y-122883851D02*
X217000000Y-46883851D01*
%TO.C,D4*%
D11*
X173800000Y-86000000D02*
X173800000Y-85299647D01*
X173800000Y-86000000D02*
X173800000Y-86700353D01*
X175500000Y-84500000D02*
X174599647Y-84500000D01*
X175500000Y-84500000D02*
X176400353Y-84500000D01*
X175500000Y-87500000D02*
X174599647Y-87500000D01*
X175500000Y-87500000D02*
X176400353Y-87500000D01*
X177200000Y-86000000D02*
X177200000Y-85299647D01*
X177200000Y-86000000D02*
X177200000Y-86700353D01*
X173756066Y-85143345D02*
G75*
G02*
X173800000Y-85299647I-256058J-156299D01*
G01*
X173756066Y-85143345D02*
G75*
G02*
X174443345Y-84456066I426776J260503D01*
G01*
X173800000Y-86700353D02*
G75*
G02*
X173756066Y-86856655I-299992J-3D01*
G01*
X174443345Y-87543934D02*
G75*
G02*
X173756066Y-86856655I-260503J426776D01*
G01*
X174443345Y-87543934D02*
G75*
G02*
X174599647Y-87500000I156299J-256058D01*
G01*
X174599647Y-84500000D02*
G75*
G02*
X174443345Y-84456066I-3J299992D01*
G01*
X176400353Y-87500000D02*
G75*
G02*
X176556656Y-87543933I-3J-300020D01*
G01*
X176556655Y-84456066D02*
G75*
G02*
X176400353Y-84499976I-156255J256066D01*
G01*
X176556655Y-84456066D02*
G75*
G02*
X177243934Y-85143345I260505J-426774D01*
G01*
X177200000Y-85299647D02*
G75*
G02*
X177243935Y-85143346I299680J87D01*
G01*
X177243934Y-86856655D02*
G75*
G02*
X176556655Y-87543934I-426774J-260505D01*
G01*
X177243934Y-86856655D02*
G75*
G02*
X177200024Y-86700353I256066J156255D01*
G01*
%TO.C,D3*%
X173800000Y-103000000D02*
X173800000Y-102299647D01*
X173800000Y-103000000D02*
X173800000Y-103700353D01*
X175500000Y-101500000D02*
X174599647Y-101500000D01*
X175500000Y-101500000D02*
X176400353Y-101500000D01*
X175500000Y-104500000D02*
X174599647Y-104500000D01*
X175500000Y-104500000D02*
X176400353Y-104500000D01*
X177200000Y-103000000D02*
X177200000Y-102299647D01*
X177200000Y-103000000D02*
X177200000Y-103700353D01*
X173756066Y-102143345D02*
G75*
G02*
X173800000Y-102299647I-256058J-156299D01*
G01*
X173756066Y-102143345D02*
G75*
G02*
X174443345Y-101456066I426776J260503D01*
G01*
X173800000Y-103700353D02*
G75*
G02*
X173756066Y-103856655I-299992J-3D01*
G01*
X174443345Y-104543934D02*
G75*
G02*
X173756066Y-103856655I-260503J426776D01*
G01*
X174443345Y-104543934D02*
G75*
G02*
X174599647Y-104500000I156299J-256058D01*
G01*
X174599647Y-101500000D02*
G75*
G02*
X174443345Y-101456066I-3J299992D01*
G01*
X176400353Y-104500000D02*
G75*
G02*
X176556656Y-104543933I-3J-300020D01*
G01*
X176556655Y-101456066D02*
G75*
G02*
X176400353Y-101499976I-156255J256066D01*
G01*
X176556655Y-101456066D02*
G75*
G02*
X177243934Y-102143345I260505J-426774D01*
G01*
X177200000Y-102299647D02*
G75*
G02*
X177243935Y-102143346I299680J87D01*
G01*
X177243934Y-103856655D02*
G75*
G02*
X176556655Y-104543934I-426774J-260505D01*
G01*
X177243934Y-103856655D02*
G75*
G02*
X177200024Y-103700353I256066J156255D01*
G01*
%TO.C,D2*%
X190800000Y-103000000D02*
X190800000Y-102299647D01*
X190800000Y-103000000D02*
X190800000Y-103700353D01*
X192500000Y-101500000D02*
X191599647Y-101500000D01*
X192500000Y-101500000D02*
X193400353Y-101500000D01*
X192500000Y-104500000D02*
X191599647Y-104500000D01*
X192500000Y-104500000D02*
X193400353Y-104500000D01*
X194200000Y-103000000D02*
X194200000Y-102299647D01*
X194200000Y-103000000D02*
X194200000Y-103700353D01*
X190756066Y-102143345D02*
G75*
G02*
X190800000Y-102299647I-256058J-156299D01*
G01*
X190756066Y-102143345D02*
G75*
G02*
X191443345Y-101456066I426776J260503D01*
G01*
X190800000Y-103700353D02*
G75*
G02*
X190756066Y-103856655I-299992J-3D01*
G01*
X191443345Y-104543934D02*
G75*
G02*
X190756066Y-103856655I-260503J426776D01*
G01*
X191443345Y-104543934D02*
G75*
G02*
X191599647Y-104500000I156299J-256058D01*
G01*
X191599647Y-101500000D02*
G75*
G02*
X191443345Y-101456066I-3J299992D01*
G01*
X193400353Y-104500000D02*
G75*
G02*
X193556656Y-104543933I-3J-300020D01*
G01*
X193556655Y-101456066D02*
G75*
G02*
X193400353Y-101499976I-156255J256066D01*
G01*
X193556655Y-101456066D02*
G75*
G02*
X194243934Y-102143345I260505J-426774D01*
G01*
X194200000Y-102299647D02*
G75*
G02*
X194243935Y-102143346I299680J87D01*
G01*
X194243934Y-103856655D02*
G75*
G02*
X193556655Y-104543934I-426774J-260505D01*
G01*
X194243934Y-103856655D02*
G75*
G02*
X194200024Y-103700353I256066J156255D01*
G01*
%TO.C,D1*%
X190800000Y-86000000D02*
X190800000Y-85299647D01*
X190800000Y-86000000D02*
X190800000Y-86700353D01*
X192500000Y-84500000D02*
X191599647Y-84500000D01*
X192500000Y-84500000D02*
X193400353Y-84500000D01*
X192500000Y-87500000D02*
X191599647Y-87500000D01*
X192500000Y-87500000D02*
X193400353Y-87500000D01*
X194200000Y-86000000D02*
X194200000Y-85299647D01*
X194200000Y-86000000D02*
X194200000Y-86700353D01*
X190756066Y-85143345D02*
G75*
G02*
X190800000Y-85299647I-256058J-156299D01*
G01*
X190756066Y-85143345D02*
G75*
G02*
X191443345Y-84456066I426776J260503D01*
G01*
X190800000Y-86700353D02*
G75*
G02*
X190756066Y-86856655I-299992J-3D01*
G01*
X191443345Y-87543934D02*
G75*
G02*
X190756066Y-86856655I-260503J426776D01*
G01*
X191443345Y-87543934D02*
G75*
G02*
X191599647Y-87500000I156299J-256058D01*
G01*
X191599647Y-84500000D02*
G75*
G02*
X191443345Y-84456066I-3J299992D01*
G01*
X193400353Y-87500000D02*
G75*
G02*
X193556656Y-87543933I-3J-300020D01*
G01*
X193556655Y-84456066D02*
G75*
G02*
X193400353Y-84499976I-156255J256066D01*
G01*
X193556655Y-84456066D02*
G75*
G02*
X194243934Y-85143345I260505J-426774D01*
G01*
X194200000Y-85299647D02*
G75*
G02*
X194243935Y-85143346I299680J87D01*
G01*
X194243934Y-86856655D02*
G75*
G02*
X193556655Y-87543934I-426774J-260505D01*
G01*
X194243934Y-86856655D02*
G75*
G02*
X194200024Y-86700353I256066J156255D01*
G01*
%TD*%
M02*
