%TF.GenerationSoftware,KiCad,Pcbnew,10.0.5*%
%TF.CreationDate,2026-09-11T17:52:54-07:00*%
%TF.ProjectId,hackpad,6861636b-7061-4642-9e6b-696361645f70,rev?*%
%TF.SameCoordinates,Original*%
%TF.FileFunction,Copper,L1,Top*%
%TF.FilePolarity,Positive*%
%FSLAX46Y46*%
G04 Gerber Fmt 4.6, Leading zero omitted, Abs format (unit mm)*
G04 Created by KiCad (PCBNEW 10.0.5) date 2026-09-11 17:52:54*
%MOMM*%
%LPD*%
G01*
G04 APERTURE LIST*
G04 Aperture macros list*
%AMRoundRect*
0 Rectangle with rounded corners*
0 $1 Rounding radius*
0 $2 $3 $4 $5 $6 $7 $8 $9 X,Y pos of 4 corners*
0 Add a 4 corners polygon primitive as box body*
4,1,4,$2,$3,$4,$5,$6,$7,$8,$9,$2,$3,0*
0 Add four circle primitives for the rounded corners*
1,1,$1+$1,$2,$3*
1,1,$1+$1,$4,$5*
1,1,$1+$1,$6,$7*
1,1,$1+$1,$8,$9*
0 Add four rect primitives between the rounded corners*
20,1,$1+$1,$2,$3,$4,$5,0*
20,1,$1+$1,$4,$5,$6,$7,0*
20,1,$1+$1,$6,$7,$8,$9,0*
20,1,$1+$1,$8,$9,$2,$3,0*%
G04 Aperture macros list end*
%TA.AperFunction,ComponentPad*%
%ADD10RoundRect,0.250000X0.550000X-0.550000X0.550000X0.550000X-0.550000X0.550000X-0.550000X-0.550000X0*%
%TD*%
%TA.AperFunction,ComponentPad*%
%ADD11C,1.600000*%
%TD*%
%TA.AperFunction,ComponentPad*%
%ADD12RoundRect,0.250000X0.550000X0.550000X-0.550000X0.550000X-0.550000X-0.550000X0.550000X-0.550000X0*%
%TD*%
%TA.AperFunction,ComponentPad*%
%ADD13C,2.200000*%
%TD*%
%TA.AperFunction,ComponentPad*%
%ADD14RoundRect,0.250000X-0.550000X-0.550000X0.550000X-0.550000X0.550000X0.550000X-0.550000X0.550000X0*%
%TD*%
%TA.AperFunction,ComponentPad*%
%ADD15R,1.700000X1.700000*%
%TD*%
%TA.AperFunction,ComponentPad*%
%ADD16O,1.700000X1.700000*%
%TD*%
%TA.AperFunction,ComponentPad*%
%ADD17R,3.500000X1.700000*%
%TD*%
%TA.AperFunction,ComponentPad*%
%ADD18O,3.600000X1.700000*%
%TD*%
%TA.AperFunction,ComponentPad*%
%ADD19O,3.700000X1.700000*%
%TD*%
%TA.AperFunction,Conductor*%
%ADD20C,0.200000*%
%TD*%
G04 APERTURE END LIST*
D10*
%TO.P,D10,1,K_1*%
%TO.N,Net-(D10-K)*%
X212000000Y-104500000D03*
D11*
%TO.P,D10,2,A_2*%
%TO.N,Net-(D10-A)*%
X212000000Y-96880000D03*
%TD*%
D12*
%TO.P,D11,1,K_1*%
%TO.N,Net-(D11-K)*%
X171000000Y-122500000D03*
D11*
%TO.P,D11,2,A_2*%
%TO.N,Net-(D11-A)*%
X163380000Y-122500000D03*
%TD*%
D13*
%TO.P,SW7,1,1_1*%
%TO.N,/col1*%
X169540000Y-106420000D03*
%TO.P,SW7,2,2_2*%
%TO.N,Net-(D11-A)*%
X163190000Y-108960000D03*
%TD*%
%TO.P,SW10,1,1_1*%
%TO.N,/col3*%
X203620000Y-106420000D03*
%TO.P,SW10,2,2_2*%
%TO.N,Net-(D13-A)*%
X197270000Y-108960000D03*
%TD*%
%TO.P,SW4,1,1_1*%
%TO.N,/col1*%
X169460000Y-89420000D03*
%TO.P,SW4,2,2_2*%
%TO.N,Net-(D8-A)*%
X163110000Y-91960000D03*
%TD*%
%TO.P,SW5,1,1_1*%
%TO.N,/col2*%
X186460000Y-89420000D03*
%TO.P,SW5,2,2_2*%
%TO.N,Net-(D9-A)*%
X180110000Y-91960000D03*
%TD*%
D10*
%TO.P,D8,1,K_1*%
%TO.N,Net-(D10-K)*%
X156000000Y-96810000D03*
D11*
%TO.P,D8,2,A_2*%
%TO.N,Net-(D8-A)*%
X156000000Y-89190000D03*
%TD*%
D10*
%TO.P,D9,1,K_1*%
%TO.N,Net-(D10-K)*%
X212000000Y-93310000D03*
D11*
%TO.P,D9,2,A_2*%
%TO.N,Net-(D9-A)*%
X212000000Y-85690000D03*
%TD*%
D12*
%TO.P,D13,1,K_1*%
%TO.N,Net-(D11-K)*%
X206000000Y-122500000D03*
D11*
%TO.P,D13,2,A_2*%
%TO.N,Net-(D13-A)*%
X198380000Y-122500000D03*
%TD*%
D14*
%TO.P,D6,1,K_1*%
%TO.N,Net-(D5-K)*%
X164380000Y-64000000D03*
D11*
%TO.P,D6,2,A_2*%
%TO.N,Net-(D6-A)*%
X172000000Y-64000000D03*
%TD*%
D12*
%TO.P,D12,1,K_1*%
%TO.N,Net-(D11-K)*%
X189000000Y-122500000D03*
D11*
%TO.P,D12,2,A_2*%
%TO.N,Net-(D12-A)*%
X181380000Y-122500000D03*
%TD*%
D13*
%TO.P,SW2,1,1_1*%
%TO.N,/col2*%
X186460000Y-72420000D03*
%TO.P,SW2,2,2_2*%
%TO.N,Net-(D6-A)*%
X180110000Y-74960000D03*
%TD*%
%TO.P,SW9,1,1_1*%
%TO.N,/col2*%
X186540000Y-106420000D03*
%TO.P,SW9,2,2_2*%
%TO.N,Net-(D12-A)*%
X180190000Y-108960000D03*
%TD*%
D15*
%TO.P,U2,1,GND_1*%
%TO.N,GND*%
X190115000Y-49805000D03*
D16*
%TO.P,U2,2,VCC_2*%
%TO.N,/OLED VCC*%
X190115000Y-52345000D03*
%TO.P,U2,3,SCL_3*%
%TO.N,/OLED SCL*%
X190115000Y-54885000D03*
%TO.P,U2,4,SDA_4*%
%TO.N,/<NO NET>*%
X190115000Y-57425000D03*
%TD*%
D13*
%TO.P,SW1,1,1_1*%
%TO.N,/col1*%
X169460000Y-72420000D03*
%TO.P,SW1,2,2_2*%
%TO.N,Net-(D5-A)*%
X163110000Y-74960000D03*
%TD*%
D17*
%TO.P,U1,1,PA02_A0_D0_1*%
%TO.N,/col1*%
X195500000Y-48760000D03*
D18*
%TO.P,U1,2,PA4_A1_D1_2*%
%TO.N,Net-(D1-DIN)*%
X195500000Y-51300000D03*
%TO.P,U1,3,PA10_A2_D2_3*%
%TO.N,/col2*%
X195500000Y-53840000D03*
%TO.P,U1,4,PA11_A3_D3_4*%
%TO.N,/col3*%
X195500000Y-56380000D03*
%TO.P,U1,5,PA8_A4_D4_SDA_5*%
%TO.N,/<NO NET>*%
X195500000Y-58920000D03*
%TO.P,U1,6,PA9_A5_D5_SCL_6*%
%TO.N,/OLED SCL*%
X195500000Y-61460000D03*
%TO.P,U1,7,PB08_A6_D6_TX_7*%
%TO.N,unconnected-(U1-PB08_A6_D6_TX-Pad7)*%
X195500000Y-64000000D03*
%TO.P,U1,8,PB09_A7_D7_RX_8*%
%TO.N,unconnected-(U1-PB09_A7_D7_RX-Pad8)*%
X212750000Y-64000000D03*
%TO.P,U1,9,PA7_A8_D8_SCK_9*%
%TO.N,Net-(D11-K)*%
X212750000Y-61460000D03*
%TO.P,U1,10,PA5_A9_D9_MISO_10*%
%TO.N,Net-(D10-K)*%
X212750000Y-58920000D03*
D19*
%TO.P,U1,11,PA6_A10_D10_MOSI_11*%
%TO.N,Net-(D5-K)*%
X212750000Y-56380000D03*
%TO.P,U1,12,3V3_12*%
%TO.N,/OLED VCC*%
X212750000Y-53840000D03*
%TO.P,U1,13,GND_13*%
%TO.N,GND*%
X212750000Y-51300000D03*
%TO.P,U1,14,5V_14*%
%TO.N,/LED VDD*%
X212750000Y-48760000D03*
%TD*%
D13*
%TO.P,SW3,1,1_1*%
%TO.N,/col3*%
X203620000Y-72420000D03*
%TO.P,SW3,2,2_2*%
%TO.N,Net-(D7-A)*%
X197270000Y-74960000D03*
%TD*%
%TO.P,SW6,1,1_1*%
%TO.N,/col3*%
X203620000Y-89420000D03*
%TO.P,SW6,2,2_2*%
%TO.N,Net-(D10-A)*%
X197270000Y-91960000D03*
%TD*%
D14*
%TO.P,D5,1,K_1*%
%TO.N,Net-(D5-K)*%
X153880000Y-64000000D03*
D11*
%TO.P,D5,2,A_2*%
%TO.N,Net-(D5-A)*%
X161500000Y-64000000D03*
%TD*%
D14*
%TO.P,D7,1,K_1*%
%TO.N,Net-(D5-K)*%
X174880000Y-64000000D03*
D11*
%TO.P,D7,2,A_2*%
%TO.N,Net-(D7-A)*%
X182500000Y-64000000D03*
%TD*%
%TO.N,/col1*%
D20*
X196500000Y-48500000D02*
X194000000Y-46000000D01*
X196500000Y-48760000D02*
X196500000Y-48500000D01*
X169540000Y-106420000D02*
X169540000Y-89500000D01*
X169460000Y-89420000D02*
X155420000Y-75380000D01*
X169540000Y-89500000D02*
X169460000Y-89420000D01*
X152500000Y-49000000D02*
X152500000Y-69500000D01*
X155420000Y-75380000D02*
X155420000Y-72420000D01*
X152500000Y-69500000D02*
X155420000Y-72420000D01*
X155500000Y-46000000D02*
X152500000Y-49000000D01*
X194000000Y-46000000D02*
X155500000Y-46000000D01*
X155420000Y-72420000D02*
X169460000Y-72420000D01*
%TO.N,Net-(D5-A)*%
X161500000Y-64000000D02*
X162310000Y-64000000D01*
X168810000Y-70500000D02*
X172000000Y-70500000D01*
X172000000Y-72500000D02*
X169540000Y-74960000D01*
X169540000Y-74960000D02*
X163110000Y-74960000D01*
X162310000Y-64000000D02*
X168810000Y-70500000D01*
X172000000Y-70500000D02*
X172000000Y-72500000D01*
%TO.N,Net-(D6-A)*%
X171810000Y-64190000D02*
X171810000Y-66660000D01*
X171810000Y-66660000D02*
X180110000Y-74960000D01*
X172000000Y-64000000D02*
X171810000Y-64190000D01*
%TO.N,/col2*%
X192500000Y-55500000D02*
X194160000Y-53840000D01*
X193540000Y-79500000D02*
X198000000Y-79500000D01*
X198000000Y-76500000D02*
X199500000Y-75000000D01*
X186460000Y-72420000D02*
X193540000Y-79500000D01*
X186460000Y-106340000D02*
X186540000Y-106420000D01*
X192500000Y-67000000D02*
X192500000Y-55500000D01*
X198000000Y-79500000D02*
X198000000Y-76500000D01*
X199500000Y-75000000D02*
X199500000Y-74000000D01*
X194160000Y-53840000D02*
X196500000Y-53840000D01*
X186460000Y-72420000D02*
X186460000Y-106340000D01*
X199500000Y-74000000D02*
X192500000Y-67000000D01*
%TO.N,Net-(D7-A)*%
X183500000Y-63000000D02*
X185310000Y-63000000D01*
X182500000Y-64000000D02*
X183500000Y-63000000D01*
X185310000Y-63000000D02*
X197270000Y-74960000D01*
%TO.N,/col3*%
X195463654Y-56380000D02*
X196500000Y-56380000D01*
X203620000Y-72420000D02*
X203620000Y-63500000D01*
X203620000Y-72420000D02*
X203620000Y-106420000D01*
X203620000Y-63500000D02*
X196500000Y-56380000D01*
%TO.N,Net-(D8-A)*%
X160340000Y-89190000D02*
X163110000Y-91960000D01*
X156500000Y-89190000D02*
X160340000Y-89190000D01*
%TO.N,Net-(D9-A)*%
X198670000Y-105604314D02*
X198670000Y-90670000D01*
X188000000Y-108000000D02*
X186000000Y-108000000D01*
X198670000Y-90670000D02*
X197000000Y-89000000D01*
X190000000Y-89000000D02*
X187500000Y-91500000D01*
X207500000Y-104934314D02*
X203834314Y-108600000D01*
X207500000Y-93190000D02*
X207500000Y-104934314D01*
X212000000Y-88690000D02*
X207500000Y-93190000D01*
X181000000Y-103000000D02*
X181000000Y-92850000D01*
X203834314Y-108600000D02*
X201665686Y-108600000D01*
X188500000Y-105500000D02*
X188500000Y-107500000D01*
X187500000Y-104500000D02*
X188500000Y-105500000D01*
X187500000Y-91500000D02*
X187500000Y-104500000D01*
X181000000Y-92850000D02*
X180110000Y-91960000D01*
X186000000Y-108000000D02*
X181000000Y-103000000D01*
X212000000Y-85690000D02*
X212000000Y-88690000D01*
X188500000Y-107500000D02*
X188000000Y-108000000D01*
X197000000Y-89000000D02*
X190000000Y-89000000D01*
X201665686Y-108600000D02*
X198670000Y-105604314D01*
%TO.N,Net-(D10-A)*%
X204000000Y-109000000D02*
X201500000Y-109000000D01*
X214000000Y-96880000D02*
X215000000Y-97880000D01*
X215000000Y-98000000D02*
X204000000Y-109000000D01*
X201500000Y-109000000D02*
X198000000Y-105500000D01*
X198000000Y-92690000D02*
X197270000Y-91960000D01*
X215000000Y-97880000D02*
X215000000Y-98000000D01*
X198000000Y-105500000D02*
X198000000Y-92690000D01*
X212000000Y-96880000D02*
X214000000Y-96880000D01*
%TO.N,Net-(D11-A)*%
X163380000Y-122500000D02*
X163380000Y-109150000D01*
X163380000Y-109150000D02*
X163190000Y-108960000D01*
%TO.N,Net-(D12-A)*%
X181380000Y-122500000D02*
X181380000Y-110150000D01*
X181380000Y-110150000D02*
X180190000Y-108960000D01*
%TO.N,Net-(D13-A)*%
X198380000Y-122500000D02*
X198380000Y-110070000D01*
X198380000Y-110070000D02*
X197270000Y-108960000D01*
%TO.N,Net-(D11-K)*%
X205328329Y-124171671D02*
X206000000Y-123500000D01*
X189000000Y-123500000D02*
X189671671Y-124171671D01*
X206000000Y-123500000D02*
X206000000Y-122500000D01*
X189000000Y-123500000D02*
X189000000Y-122500000D01*
X173000000Y-124000000D02*
X188500000Y-124000000D01*
X188500000Y-124000000D02*
X189000000Y-123500000D01*
X171500000Y-122500000D02*
X173000000Y-124000000D01*
X171000000Y-122500000D02*
X171500000Y-122500000D01*
X189671671Y-124171671D02*
X205328329Y-124171671D01*
%TO.N,Net-(D10-K)*%
X215500000Y-56256346D02*
X212836346Y-58920000D01*
X152100000Y-92910000D02*
X152100000Y-48834314D01*
X212000000Y-93310000D02*
X215690000Y-93310000D01*
X215810000Y-93310000D02*
X212000000Y-93310000D01*
X212836346Y-58920000D02*
X211750000Y-58920000D01*
X212000000Y-104500000D02*
X216000000Y-104500000D01*
X155334315Y-45600000D02*
X213100000Y-45600000D01*
X156000000Y-96810000D02*
X152100000Y-92910000D01*
X213100000Y-45600000D02*
X215500000Y-48000000D01*
X152100000Y-48834314D02*
X155334315Y-45600000D01*
X215690000Y-93310000D02*
X215500000Y-93120000D01*
X216000000Y-104500000D02*
X216000000Y-93500000D01*
X215500000Y-59500000D02*
X214920000Y-58920000D01*
X215500000Y-93120000D02*
X215500000Y-59500000D01*
X215500000Y-48000000D02*
X215500000Y-56256346D01*
X214920000Y-58920000D02*
X211750000Y-58920000D01*
X216000000Y-93500000D02*
X215810000Y-93310000D01*
%TO.N,Net-(D5-K)*%
X153880000Y-64000000D02*
X156690000Y-61190000D01*
X164380000Y-64000000D02*
X164380000Y-63310000D01*
X186305000Y-51195000D02*
X192195000Y-51195000D01*
X166190000Y-61500000D02*
X172380000Y-61500000D01*
X164380000Y-63310000D02*
X166190000Y-61500000D01*
X174690000Y-63810000D02*
X174690000Y-62810000D01*
X192195000Y-51195000D02*
X193450000Y-52450000D01*
X161380000Y-61000000D02*
X164380000Y-64000000D01*
X156690000Y-61000000D02*
X161380000Y-61000000D01*
X193450000Y-52450000D02*
X207820000Y-52450000D01*
X207820000Y-52450000D02*
X211750000Y-56380000D01*
X172380000Y-61500000D02*
X174880000Y-64000000D01*
X156690000Y-61190000D02*
X156690000Y-61000000D01*
X174690000Y-62810000D02*
X186305000Y-51195000D01*
X174880000Y-64000000D02*
X174690000Y-63810000D01*
%TD*%
M02*
