%TF.GenerationSoftware,KiCad,Pcbnew,10.0.5*%
%TF.CreationDate,2026-09-11T17:52:54-07:00*%
%TF.ProjectId,hackpad,6861636b-7061-4642-9e6b-696361645f70,rev?*%
%TF.SameCoordinates,Original*%
%TF.FileFunction,Legend,Bot*%
%TF.FilePolarity,Positive*%
%FSLAX46Y46*%
G04 Gerber Fmt 4.6, Leading zero omitted, Abs format (unit mm)*
G04 Created by KiCad (PCBNEW 10.0.5) date 2026-09-11 17:52:54*
%MOMM*%
%LPD*%
G01*
G04 APERTURE LIST*
%ADD10C,0.150000*%
%ADD11C,0.120000*%
G04 APERTURE END LIST*
D10*
X174761905Y-88145180D02*
X174761905Y-89145180D01*
X174761905Y-89145180D02*
X175000000Y-89145180D01*
X175000000Y-89145180D02*
X175142857Y-89097561D01*
X175142857Y-89097561D02*
X175238095Y-89002323D01*
X175238095Y-89002323D02*
X175285714Y-88907085D01*
X175285714Y-88907085D02*
X175333333Y-88716609D01*
X175333333Y-88716609D02*
X175333333Y-88573752D01*
X175333333Y-88573752D02*
X175285714Y-88383276D01*
X175285714Y-88383276D02*
X175238095Y-88288038D01*
X175238095Y-88288038D02*
X175142857Y-88192800D01*
X175142857Y-88192800D02*
X175000000Y-88145180D01*
X175000000Y-88145180D02*
X174761905Y-88145180D01*
X176190476Y-88811847D02*
X176190476Y-88145180D01*
X175952381Y-89192800D02*
X175714286Y-88478514D01*
X175714286Y-88478514D02*
X176333333Y-88478514D01*
X174761905Y-105145180D02*
X174761905Y-106145180D01*
X174761905Y-106145180D02*
X175000000Y-106145180D01*
X175000000Y-106145180D02*
X175142857Y-106097561D01*
X175142857Y-106097561D02*
X175238095Y-106002323D01*
X175238095Y-106002323D02*
X175285714Y-105907085D01*
X175285714Y-105907085D02*
X175333333Y-105716609D01*
X175333333Y-105716609D02*
X175333333Y-105573752D01*
X175333333Y-105573752D02*
X175285714Y-105383276D01*
X175285714Y-105383276D02*
X175238095Y-105288038D01*
X175238095Y-105288038D02*
X175142857Y-105192800D01*
X175142857Y-105192800D02*
X175000000Y-105145180D01*
X175000000Y-105145180D02*
X174761905Y-105145180D01*
X175666667Y-106145180D02*
X176285714Y-106145180D01*
X176285714Y-106145180D02*
X175952381Y-105764228D01*
X175952381Y-105764228D02*
X176095238Y-105764228D01*
X176095238Y-105764228D02*
X176190476Y-105716609D01*
X176190476Y-105716609D02*
X176238095Y-105668990D01*
X176238095Y-105668990D02*
X176285714Y-105573752D01*
X176285714Y-105573752D02*
X176285714Y-105335657D01*
X176285714Y-105335657D02*
X176238095Y-105240419D01*
X176238095Y-105240419D02*
X176190476Y-105192800D01*
X176190476Y-105192800D02*
X176095238Y-105145180D01*
X176095238Y-105145180D02*
X175809524Y-105145180D01*
X175809524Y-105145180D02*
X175714286Y-105192800D01*
X175714286Y-105192800D02*
X175666667Y-105240419D01*
X191761905Y-105145180D02*
X191761905Y-106145180D01*
X191761905Y-106145180D02*
X192000000Y-106145180D01*
X192000000Y-106145180D02*
X192142857Y-106097561D01*
X192142857Y-106097561D02*
X192238095Y-106002323D01*
X192238095Y-106002323D02*
X192285714Y-105907085D01*
X192285714Y-105907085D02*
X192333333Y-105716609D01*
X192333333Y-105716609D02*
X192333333Y-105573752D01*
X192333333Y-105573752D02*
X192285714Y-105383276D01*
X192285714Y-105383276D02*
X192238095Y-105288038D01*
X192238095Y-105288038D02*
X192142857Y-105192800D01*
X192142857Y-105192800D02*
X192000000Y-105145180D01*
X192000000Y-105145180D02*
X191761905Y-105145180D01*
X192714286Y-106049942D02*
X192761905Y-106097561D01*
X192761905Y-106097561D02*
X192857143Y-106145180D01*
X192857143Y-106145180D02*
X193095238Y-106145180D01*
X193095238Y-106145180D02*
X193190476Y-106097561D01*
X193190476Y-106097561D02*
X193238095Y-106049942D01*
X193238095Y-106049942D02*
X193285714Y-105954704D01*
X193285714Y-105954704D02*
X193285714Y-105859466D01*
X193285714Y-105859466D02*
X193238095Y-105716609D01*
X193238095Y-105716609D02*
X192666667Y-105145180D01*
X192666667Y-105145180D02*
X193285714Y-105145180D01*
X191761905Y-88145180D02*
X191761905Y-89145180D01*
X191761905Y-89145180D02*
X192000000Y-89145180D01*
X192000000Y-89145180D02*
X192142857Y-89097561D01*
X192142857Y-89097561D02*
X192238095Y-89002323D01*
X192238095Y-89002323D02*
X192285714Y-88907085D01*
X192285714Y-88907085D02*
X192333333Y-88716609D01*
X192333333Y-88716609D02*
X192333333Y-88573752D01*
X192333333Y-88573752D02*
X192285714Y-88383276D01*
X192285714Y-88383276D02*
X192238095Y-88288038D01*
X192238095Y-88288038D02*
X192142857Y-88192800D01*
X192142857Y-88192800D02*
X192000000Y-88145180D01*
X192000000Y-88145180D02*
X191761905Y-88145180D01*
X193285714Y-88145180D02*
X192714286Y-88145180D01*
X193000000Y-88145180D02*
X193000000Y-89145180D01*
X193000000Y-89145180D02*
X192904762Y-89002323D01*
X192904762Y-89002323D02*
X192809524Y-88907085D01*
X192809524Y-88907085D02*
X192714286Y-88859466D01*
%TO.C,D4*%
D11*
X171850000Y-84850000D02*
X171850000Y-87875000D01*
X171850000Y-84850000D02*
X172575000Y-84125000D01*
X171850000Y-87875000D02*
X179150000Y-87875000D01*
X179150000Y-84125000D02*
X172575000Y-84125000D01*
X179150000Y-87875000D02*
X179150000Y-84125000D01*
X172775000Y-84550000D02*
X172925000Y-84350000D01*
X172625000Y-84350000D01*
X172775000Y-84550000D01*
G36*
X172775000Y-84550000D02*
G01*
X172625000Y-84350000D01*
X172925000Y-84350000D01*
X172775000Y-84550000D01*
G37*
%TO.C,D3*%
X171850000Y-101850000D02*
X171850000Y-104875000D01*
X171850000Y-101850000D02*
X172575000Y-101125000D01*
X171850000Y-104875000D02*
X179150000Y-104875000D01*
X179150000Y-101125000D02*
X172575000Y-101125000D01*
X179150000Y-104875000D02*
X179150000Y-101125000D01*
X172775000Y-101550000D02*
X172925000Y-101350000D01*
X172625000Y-101350000D01*
X172775000Y-101550000D01*
G36*
X172775000Y-101550000D02*
G01*
X172625000Y-101350000D01*
X172925000Y-101350000D01*
X172775000Y-101550000D01*
G37*
%TO.C,D2*%
X188850000Y-101850000D02*
X188850000Y-104875000D01*
X188850000Y-101850000D02*
X189575000Y-101125000D01*
X188850000Y-104875000D02*
X196150000Y-104875000D01*
X196150000Y-101125000D02*
X189575000Y-101125000D01*
X196150000Y-104875000D02*
X196150000Y-101125000D01*
X189775000Y-101550000D02*
X189925000Y-101350000D01*
X189625000Y-101350000D01*
X189775000Y-101550000D01*
G36*
X189775000Y-101550000D02*
G01*
X189625000Y-101350000D01*
X189925000Y-101350000D01*
X189775000Y-101550000D01*
G37*
%TO.C,D1*%
X188850000Y-84850000D02*
X188850000Y-87875000D01*
X188850000Y-84850000D02*
X189575000Y-84125000D01*
X188850000Y-87875000D02*
X196150000Y-87875000D01*
X196150000Y-84125000D02*
X189575000Y-84125000D01*
X196150000Y-87875000D02*
X196150000Y-84125000D01*
X189775000Y-84550000D02*
X189925000Y-84350000D01*
X189625000Y-84350000D01*
X189775000Y-84550000D01*
G36*
X189775000Y-84550000D02*
G01*
X189625000Y-84350000D01*
X189925000Y-84350000D01*
X189775000Y-84550000D01*
G37*
%TD*%
M02*
